;TYPE=PLATED
;Layer: PTH_Through
;EasyEDA Pro v2.2.35.2, 2025-02-24 01:09:25
;Gerber Generator version 0.3
M48
METRIC,LZ,0000.00000
;Hole size 1 = 0.30480 METRIC
T01C0.30480
;Hole size 2 = 0.90000 METRIC
T02C0.90000
;Hole size 3 = 1.50000 METRIC
T03C1.50000
%
G05
G90
T01
X111.125Y102.6922
X110.1344Y102.7176
X109.1692Y102.6922
X106.8578Y102.4128
X107.9246Y102.413
X110.6424Y105.7402
X107.696Y105.156
X145.2372Y109.1184
X137.6046Y117.3358
X136.40974Y117.33686
X118.8739Y113.34404
X148.6154Y105.6894
X141.6304Y108.0008
X141.5034Y109.347
X115.2906Y103.9876
X111.8108Y106.8832
X115.81Y119.444
X115.81Y120.3584
X111.9238Y119.7488
X136.2456Y102.108
X135.2042Y102.1334
X126.8844Y102.426
X128.1036Y102.426
X115.9116Y107.6076
X123.9888Y118.047
X137.3506Y119.063
X136.36Y119.063
X131.5072Y102.5022
X127.3416Y110.6556
X127.4686Y109.1824
X139.2936Y103.378
X119.9502Y119.5202
X121.4996Y118.1994
X133.1836Y112.713
X122.7442Y111.4176
X124.7762Y111.6208
X127.5194Y112.7638
X127.367Y111.8494
X138.1366Y102.0196
X131.4056Y105.5248
X126.0208Y102.426
X129.653Y104.077
X123.8364Y102.426
X121.4996Y114.364
X135.5458Y113.6274
X125.1572Y102.426
X122.16Y102.426
X121.3218Y102.426
X122.9982Y102.426
X115.7846Y108.4966
X131.3294Y101.5624
X123.3792Y110.681
X124.6746Y112.8908
X129.6276Y114.1608
X119.6708Y116.8786
X123.1506Y109.665
X132.9296Y109.2078
X120.4074Y103.0356
X129.272Y106.8964
X117.4356Y119.952
X118.8834Y119.571
X119.874Y118.428
X126.0462Y117.5644
X147.4724Y119.9134
X111.76Y107.8484
X140.081Y107.0356
T02
X105.0798Y110.998
X105.0798Y108.458
X102.5398Y110.998
X102.5398Y108.458
X104.5972Y121.3866
X104.5972Y118.8466
X104.5972Y116.3066
X104.5972Y113.7666
X113.8682Y103.0224
X113.8682Y105.5624
X141.605Y105.9688
X141.605Y103.4288
T03
X146.948Y103.653
X146.948Y110.953
X149.848Y110.953
X149.848Y103.653
M30