G04 Layer: BottomLayer*
G04 EasyEDA Pro v2.2.35.2, 2025-02-24 01:09:24*
G04 Gerber Generator version 0.3*
G04 Scale: 100 percent, Rotated: No, Reflected: No*
G04 Dimensions in millimeters*
G04 Leading zeros omitted, absolute positions, 4 integers and 5 decimals*
%FSLAX45Y45*%
%MOMM*%
%ADD10C,2.2*%
%ADD11C,1.016*%
%ADD12R,0.381X0.508*%
%ADD13R,0.508X0.381*%
%ADD14R,0.635X0.762*%
%ADD15R,0.381X0.508*%
%ADD16C,0.9031*%
%ADD17C,0.9*%
%ADD18C,1.6*%
%ADD19R,0.508X0.381*%
%ADD20C,1.9*%
%ADD21O,0.3X2.1*%
%ADD22O,2.1X0.3*%
%ADD23O,1.7X0.375*%
%ADD24R,1.5X1.2*%
%ADD25R,0.7X0.3*%
%ADD26R,0.3X0.7*%
%ADD27R,0.3X0.3*%
%ADD28R,1.5X1.5*%
%ADD29C,1.5*%
%ADD30R,1.5X1.5*%
%ADD31R,1.5X1.5*%
%ADD32C,0.6096*%
%ADD33C,0.207*%
%ADD34C,0.3556*%
%ADD35C,0.3048*%
G75*


G04 Pad Start*
G54D10*
G01X14430000Y12150000D03*
G01X14430000Y10300000D03*
G01X10313600Y10300000D03*
G01X10860200Y11030900D03*
G54D11*
G01X14960600Y10764520D03*
G01X13319760Y11501120D03*
G01X13936980Y10205720D03*
G54D12*
G01X10683240Y10132060D03*
G01X10784840Y10132060D03*
G54D13*
G01X11831320Y11557000D03*
G01X11831320Y11455400D03*
G54D14*
G01X14630400Y10568940D03*
G01X14757400Y10568940D03*
G54D15*
G01X14958060Y10568940D03*
G01X15059660Y10568940D03*
G54D17*
G01X14300000Y11657400D03*
G01X15000000Y11657400D03*
G54D18*
G01X11463600Y11100000D03*
G01X13663600Y11100000D03*
G54D12*
G01X13737600Y11819940D03*
G01X13636000Y11819940D03*
G54D15*
G01X12045820Y11695480D03*
G01X12147420Y11695480D03*
G01X13111480Y10962640D03*
G01X13213080Y10962640D03*
G01X13111480Y11046460D03*
G01X13213080Y11046460D03*
G54D13*
G01X13901420Y10703560D03*
G01X13901420Y10601960D03*
G54D19*
G01X13906500Y10431780D03*
G01X13906500Y10533380D03*
G54D13*
G01X12066140Y11372900D03*
G01X12066140Y11474500D03*
G54D19*
G01X13285340Y11179860D03*
G01X13285340Y11078260D03*
G01X13366620Y11179860D03*
G01X13366620Y11078260D03*
G54D14*
G01X13318360Y11362740D03*
G01X13445360Y11362740D03*
G54D19*
G01X12881480Y11596420D03*
G01X12881480Y11494820D03*
G01X12975460Y11596420D03*
G01X12975460Y11494820D03*
G01X12673200Y10415320D03*
G01X12673200Y10313720D03*
G54D12*
G01X12231240Y11619280D03*
G01X12129640Y11619280D03*
G54D15*
G01X12693520Y11652300D03*
G01X12591920Y11652300D03*
G54D12*
G01X11374120Y12059920D03*
G01X11475720Y12059920D03*
G01X12068680Y11535460D03*
G01X11967080Y11535460D03*
G54D20*
G01X14694800Y10365300D03*
G01X14694800Y11095300D03*
G01X14984800Y11095300D03*
G01X14984800Y10365300D03*
G54D15*
G01X11375260Y11977420D03*
G01X11476860Y11977420D03*
G01X10675620Y10840720D03*
G01X10777220Y10840720D03*
G54D13*
G01X10881360Y10713720D03*
G01X10881360Y10815320D03*
G01X11005820Y10668000D03*
G01X11005820Y10769600D03*
G01X11084560Y10668000D03*
G01X11084560Y10769600D03*
G54D12*
G01X13622020Y10289540D03*
G01X13520420Y10289540D03*
G54D13*
G01X11617960Y10401300D03*
G01X11617960Y10299700D03*
G54D19*
G01X11617960Y10457180D03*
G01X11617960Y10558780D03*
G54D21*
G01X12240720Y11452700D03*
G01X12290720Y11452700D03*
G01X12340720Y11452700D03*
G01X12390720Y11452700D03*
G01X12440720Y11452700D03*
G01X12490720Y11452700D03*
G01X12540720Y11452700D03*
G01X12590720Y11452700D03*
G01X12640720Y11452700D03*
G01X12690720Y11452700D03*
G01X12740720Y11452700D03*
G01X12790720Y11452700D03*
G54D22*
G01X12925720Y11317700D03*
G01X12925720Y11267700D03*
G01X12925720Y11217700D03*
G01X12925720Y11167700D03*
G01X12925720Y11117700D03*
G01X12925720Y11067700D03*
G01X12925720Y11017700D03*
G01X12925720Y10967700D03*
G01X12925720Y10917700D03*
G01X12925720Y10867700D03*
G01X12925720Y10817700D03*
G01X12925720Y10767700D03*
G54D21*
G01X12790720Y10632700D03*
G01X12740720Y10632700D03*
G01X12690720Y10632700D03*
G01X12640720Y10632700D03*
G01X12590720Y10632700D03*
G01X12540720Y10632700D03*
G01X12490720Y10632700D03*
G01X12440720Y10632700D03*
G01X12390720Y10632700D03*
G01X12340720Y10632700D03*
G01X12290720Y10632700D03*
G01X12240720Y10632700D03*
G54D22*
G01X12105720Y10767700D03*
G01X12105720Y10817700D03*
G01X12105720Y10867700D03*
G01X12105720Y10917700D03*
G01X12105720Y10967700D03*
G01X12105720Y11017700D03*
G01X12105720Y11067700D03*
G01X12105720Y11117700D03*
G01X12105720Y11167700D03*
G01X12105720Y11217700D03*
G01X12105720Y11267700D03*
G01X12105720Y11317700D03*
G54D23*
G01X13762040Y10601720D03*
G01X13762040Y10536720D03*
G01X13762040Y10471720D03*
G01X13762040Y10406720D03*
G01X13342040Y10601720D03*
G01X13342040Y10536720D03*
G01X13342040Y10471720D03*
G01X13342040Y10406720D03*
G54D13*
G01X11286360Y11972340D03*
G01X11286360Y12073940D03*
G54D24*
G01X11264120Y11821660D03*
G01X11484120Y11821660D03*
G01X11264120Y11440660D03*
G01X11484120Y11440660D03*
G54D15*
G01X12066140Y11614200D03*
G01X11964540Y11614200D03*
G54D25*
G01X10644600Y10460520D03*
G01X10644600Y10560520D03*
G01X10644600Y10510520D03*
G01X10894600Y10510520D03*
G01X10894600Y10560520D03*
G01X10894600Y10460520D03*
G54D26*
G01X10769600Y10635520D03*
G01X10769600Y10385520D03*
G01X10819600Y10635520D03*
G01X10719600Y10635520D03*
G01X10819600Y10385520D03*
G01X10719600Y10385520D03*
G54D27*
G01X10914600Y10610520D03*
G01X10914600Y10410520D03*
G01X10869600Y10655520D03*
G01X10869600Y10365520D03*
G01X10669600Y10365520D03*
G01X10624600Y10410520D03*
G01X10624600Y10610520D03*
G01X10669600Y10655520D03*
G54D28*
G01X10507980Y11099800D03*
G54D29*
G01X10507980Y10845800D03*
G01X10253980Y11099800D03*
G01X10253980Y10845800D03*
G01X10459720Y12138660D03*
G01X10459720Y11884660D03*
G01X10459720Y11630660D03*
G54D30*
G01X10459720Y11376660D03*
G54D29*
G01X11386820Y10302240D03*
G54D31*
G01X11386820Y10556240D03*
G54D29*
G01X14160500Y10596880D03*
G54D30*
G01X14160500Y10342880D03*
G04 Pad End*

G04 Via Start*
G54D32*
G01X11112500Y10269220D03*
G01X11013440Y10271760D03*
G01X10916920Y10269220D03*
G01X10685780Y10241280D03*
G01X10792460Y10241300D03*
G01X11064240Y10574020D03*
G01X10769600Y10515600D03*
G01X14523720Y10911840D03*
G01X13760460Y11733580D03*
G01X13640974Y11733686D03*
G01X11887390Y11334404D03*
G01X14861540Y10568940D03*
G01X14163040Y10800080D03*
G01X14150340Y10934700D03*
G01X11529060Y10398760D03*
G01X11181080Y10688320D03*
G01X11581000Y11944400D03*
G01X11581000Y12035840D03*
G01X11192380Y11974880D03*
G01X13624560Y10210800D03*
G01X13520420Y10213340D03*
G01X12688440Y10242600D03*
G01X12810360Y10242600D03*
G01X11591160Y10760760D03*
G01X12398880Y11804700D03*
G01X13735060Y11906300D03*
G01X13636000Y11906300D03*
G01X13150720Y10250220D03*
G01X12734160Y11065560D03*
G01X12746860Y10918240D03*
G01X13929360Y10337800D03*
G01X11995020Y11952020D03*
G01X12149960Y11819940D03*
G01X13318360Y11271300D03*
G01X12274420Y11141760D03*
G01X12477620Y11162080D03*
G01X12751940Y11276380D03*
G01X12736700Y11184940D03*
G01X13813660Y10201960D03*
G01X13140560Y10552480D03*
G01X12602080Y10242600D03*
G01X12965300Y10407700D03*
G01X12383640Y10242600D03*
G01X12149960Y11436400D03*
G01X13554580Y11362740D03*
G01X12515720Y10242600D03*
G01X12216000Y10242600D03*
G01X12132180Y10242600D03*
G01X12299820Y10242600D03*
G01X11578460Y10849660D03*
G01X13132940Y10156240D03*
G01X12337920Y11068100D03*
G01X12467460Y11289080D03*
G01X12962760Y11416080D03*
G01X11967080Y11687860D03*
G01X12315060Y10966500D03*
G01X13292960Y10920780D03*
G01X12040740Y10303560D03*
G01X12927200Y10689640D03*
G01X11743560Y11995200D03*
G01X11888340Y11957100D03*
G01X11987400Y11842800D03*
G01X12604620Y11756440D03*
G01X14747240Y11991340D03*
G01X11176000Y10784840D03*
G01X14008100Y10703560D03*
G04 Via End*

G04 Track Start*
G54D33*
G01X12297540Y11217700D02*
G01X12640720Y10874520D01*
G01X12600160Y11222500D02*
G01X12640720Y11222500D01*
G01X12540720Y11281940D02*
G01X12600160Y11222500D01*
G01X12540720Y11281940D02*
G01X12540720Y11452700D01*
G01X12315060Y10809020D02*
G01X12640720Y10809020D01*
G01X12105720Y11217700D02*
G01X12297540Y11217700D01*
G01X12640720Y10874520D02*
G01X12640720Y11452700D01*
G01X12640720Y10632700D02*
G01X12640720Y10874520D01*
G01X11186160Y10510520D02*
G01X11231880Y10556240D01*
G01X10894600Y10510520D02*
G01X11186160Y10510520D01*
G01X11073600Y10460520D02*
G01X11231880Y10302240D01*
G01X10894600Y10460520D02*
G01X11073600Y10460520D01*
G01X10584180Y10307320D02*
G01X10652760Y10307320D01*
G01X10380980Y10510520D02*
G01X10584180Y10307320D01*
G01X10187940Y10510520D02*
G01X10380980Y10510520D01*
G01X10693400Y10233660D02*
G01X10693400Y10253980D01*
G01X10683240Y10238740D02*
G01X10685780Y10241280D01*
G01X10683240Y10132060D02*
G01X10683240Y10238740D01*
G01X10975340Y10132060D02*
G01X11112500Y10269220D01*
G01X10784840Y10132060D02*
G01X10975340Y10132060D01*
G01X11003280Y10378440D02*
G01X11003280Y10383520D01*
G01X11003280Y10378440D02*
G01X11112500Y10269220D01*
G01X10869600Y10316540D02*
G01X10916920Y10269220D01*
G01X10869600Y10316540D02*
G01X10869600Y10365520D01*
G01X10914600Y10410520D02*
G01X10915540Y10411460D01*
G01X10975340Y10411460D01*
G01X11003280Y10383520D01*
G01X10819600Y10263340D02*
G01X10819600Y10385520D01*
G01X10792460Y10236200D02*
G01X10819600Y10263340D01*
G01X10769600Y10330180D02*
G01X10769600Y10385520D01*
G01X10693400Y10253980D02*
G01X10769600Y10330180D01*
G01X10914600Y10410520D02*
G01X10917140Y10407980D01*
G01X11050740Y10560520D02*
G01X11064240Y10574020D01*
G01X10894600Y10560520D02*
G01X11050740Y10560520D01*
G01X10869600Y10701960D02*
G01X10881360Y10713720D01*
G01X10869600Y10655520D02*
G01X10869600Y10701960D01*
G01X10967720Y10769600D02*
G01X11084560Y10769600D01*
G01X10922000Y10815320D02*
G01X10967720Y10769600D01*
G01X10819600Y10734040D02*
G01X10819600Y10784840D01*
G01X10819600Y10635520D02*
G01X10819600Y10734040D01*
G01X10795000Y10734040D02*
G01X10819600Y10734040D01*
G01X10777220Y10751820D02*
G01X10795000Y10734040D01*
G01X10820400Y10784840D02*
G01X10850880Y10815320D01*
G01X10769600Y10507980D02*
G01X10769600Y10515600D01*
G01X10719600Y10457980D02*
G01X10769600Y10507980D01*
G01X10719600Y10385520D02*
G01X10719600Y10457980D01*
G01X10675620Y10840720D02*
G01X10675620Y11922760D01*
G01X10459720Y12138660D02*
G01X10675620Y11922760D01*
G01X10668000Y10363920D02*
G01X10669600Y10365520D01*
G01X10668000Y10322560D02*
G01X10668000Y10363920D01*
G01X10652760Y10307320D02*
G01X10668000Y10322560D01*
G01X10669600Y10655520D02*
G01X10669600Y10834700D01*
G01X11231880Y10556240D02*
G01X11386820Y10556240D01*
G01X11231880Y10302240D02*
G01X11386820Y10302240D01*
G01X10914600Y10610520D02*
G01X10917140Y10607980D01*
G01X10978820Y10607980D01*
G01X11005820Y10634980D01*
G01X11004220Y10666400D02*
G01X11005820Y10668000D01*
G01X11084560Y10668000D01*
G01X11160760Y10668000D01*
G01X11181080Y10688320D01*
G01X11084560Y10769600D02*
G01X11160760Y10769600D01*
G01X11176000Y10784840D01*
G01X10850880Y10815320D02*
G01X10922000Y10815320D01*
G01X10777220Y10840720D02*
G01X10779760Y10843260D01*
G01X11005820Y10634980D02*
G01X11005820Y10664800D01*
G01X11004220Y10666400D02*
G01X11005820Y10664800D01*
G01X10777220Y10751820D02*
G01X10777220Y10840720D01*
G01X13936980Y10205720D02*
G01X13936980Y10330180D01*
G54D34*
G01X13318360Y11362740D02*
G01X13318360Y11501120D01*
G54D33*
G01X10253980Y11099800D02*
G01X10261600Y11099800D01*
G01X11172960Y11440660D02*
G01X11264120Y11440660D01*
G01X11116180Y11497440D02*
G01X11172960Y11440660D01*
G01X11116180Y11497440D02*
G01X11116180Y12020600D01*
G54D34*
G01X14861540Y10568940D02*
G01X14861540Y10777220D01*
G01X14726920Y10911840D02*
G01X14861540Y10777220D01*
G01X14523720Y10911840D02*
G01X14726920Y10911840D01*
G54D33*
G01X13694335Y11667456D02*
G01X13760460Y11733580D01*
G01X12490720Y11721835D02*
G01X12581395Y11812510D01*
G01X13468486Y11812510D01*
G01X13613541Y11667456D02*
G01X13694335Y11667456D01*
G01X13468486Y11812510D02*
G01X13613541Y11667456D01*
G01X12490720Y11452700D02*
G01X12490720Y11721835D01*
G01X13497425Y11858610D02*
G01X13622349Y11733686D01*
G01X13640974Y11733686D01*
G01X12440720Y11737030D02*
G01X12562300Y11858610D01*
G01X13497425Y11858610D01*
G01X12440720Y11452700D02*
G01X12440720Y11737030D01*
G01X10101580Y10596880D02*
G01X10187940Y10510520D01*
G01X10101580Y10596880D02*
G01X10101580Y11315700D01*
G01X10416540Y11630660D01*
G01X10459720Y11630660D01*
G01X11887390Y11320590D02*
G01X11887390Y11334404D01*
G01X11887390Y11320590D02*
G01X11940540Y11267440D01*
G01X12105460Y11267440D01*
G01X12105720Y11267700D01*
G01X11831320Y11269900D02*
G01X11831320Y11455400D01*
G01X11831320Y11269900D02*
G01X11933520Y11167700D01*
G54D34*
G01X14861540Y10568940D02*
G01X14958060Y10568940D01*
G01X14757400Y10568940D02*
G01X14861540Y10568940D01*
G54D33*
G01X14163040Y10800080D02*
G01X14168120Y10795000D01*
G01X14216380Y10795000D01*
G01X14442440Y10568940D01*
G01X14630400Y10568940D01*
G01X13519020Y10535920D02*
G01X13519020Y10599420D01*
G01X13516720Y10601720D02*
G01X13519020Y10599420D01*
G01X13342040Y10601720D02*
G01X13516720Y10601720D01*
G01X11529060Y10398760D02*
G01X11531600Y10401300D01*
G01X11617960Y10401300D01*
G01X11617960Y10457180D01*
G01X11386820Y10297160D02*
G01X11856720Y10297160D01*
G01X11386820Y10556240D02*
G01X11663600Y10556240D01*
G01X12067540Y10086340D02*
G01X12468680Y10086340D01*
G01X11856720Y10297160D02*
G01X12067540Y10086340D01*
G01X11663600Y10556240D02*
G01X12086460Y10133380D01*
G01X11933520Y11167700D02*
G01X12105720Y11167700D01*
G01X11831320Y11701960D02*
G01X11898500Y11769140D01*
G01X11831320Y11557000D02*
G01X11831320Y11701960D01*
G01X11708000Y11139220D02*
G01X11708000Y11743740D01*
G01X12746860Y10918240D02*
G01X12937360Y10918240D01*
G01X11967080Y11687860D02*
G01X12045820Y11687860D01*
G01X11964540Y11819940D02*
G01X11987400Y11842800D01*
G01X11865480Y11819940D02*
G01X11964540Y11819940D01*
G01X11758800Y11713260D02*
G01X11865480Y11819940D01*
G01X12099160Y11769140D02*
G01X12149960Y11819940D01*
G01X11898500Y11769140D02*
G01X12099160Y11769140D01*
G01X12045820Y11659920D02*
G01X12045820Y11687860D01*
G01X12045820Y11659920D02*
G01X12063600Y11642140D01*
G01X12063600Y11616740D02*
G01X12063600Y11642140D01*
G01X12063600Y11616740D02*
G01X12066140Y11614200D01*
G01X12147420Y11662460D02*
G01X12147420Y11692940D01*
G01X12129640Y11644680D02*
G01X12147420Y11662460D01*
G01X12129640Y11619280D02*
G01X12129640Y11644680D01*
G01X12051280Y12101500D02*
G01X12290720Y11862060D01*
G01X11494640Y12101500D02*
G01X12051280Y12101500D01*
G01X11476860Y12083720D02*
G01X11494640Y12101500D01*
G01X11476860Y12053620D02*
G01X11476860Y12083720D01*
G54D35*
G01X11192380Y11974880D02*
G01X11194920Y11972340D01*
G01X11286360Y11972340D01*
G01X11370180Y11972340D02*
G01X11375260Y11977420D01*
G01X11286360Y11972340D02*
G01X11370180Y11972340D01*
G54D33*
G01X11342240Y12053620D02*
G01X11375260Y12053620D01*
G01X11321920Y12073940D02*
G01X11342240Y12053620D01*
G01X11286360Y12073940D02*
G01X11321920Y12073940D01*
G01X11169520Y12073940D02*
G01X11286360Y12073940D01*
G01X11116180Y12020600D02*
G01X11169520Y12073940D01*
G01X11476860Y11977420D02*
G01X11476860Y12053620D01*
G01X11375260Y12099340D02*
G01X11413360Y12137440D01*
G01X11375260Y12053620D02*
G01X11375260Y12099340D01*
G01X12071220Y12137440D02*
G01X12340720Y11867940D01*
G01X11413360Y12137440D02*
G01X12071220Y12137440D01*
G01X11476860Y11821660D02*
G01X11476860Y11977420D01*
G01X12673200Y10313720D02*
G01X12678280Y10308640D01*
G01X12678280Y10247680D02*
G01X12678280Y10308640D01*
G01X12678280Y10247680D02*
G01X12685900Y10240060D01*
G01X12740720Y10497660D02*
G01X12810360Y10428020D01*
G01X12810360Y10247680D02*
G01X12810360Y10428020D01*
G01X12790040Y10156240D02*
G01X13132940Y10156240D01*
G01X12749400Y10196880D02*
G01X12790040Y10156240D01*
G01X12749400Y10196880D02*
G01X12749400Y10435640D01*
G01X12690720Y10494320D02*
G01X12749400Y10435640D01*
G01X13149450Y10246410D02*
G01X13150720Y10245140D01*
G01X13150720Y10250220D01*
G01X12960220Y11494820D02*
G01X12972920Y11482120D01*
G01X12972920Y11426240D02*
G01X12972920Y11482120D01*
G01X12962760Y11416080D02*
G01X12972920Y11426240D01*
G01X11588620Y10750600D02*
G01X11606400Y10768380D01*
G01X12105040Y10768380D01*
G01X11591160Y10753140D02*
G01X11591160Y10760760D01*
G01X12105040Y10768380D02*
G01X12105720Y10767700D01*
G01X12874920Y10689640D02*
G01X12927200Y10689640D01*
G01X12924660Y10547400D02*
G01X12924660Y10687100D01*
G01X13135480Y10547400D02*
G01X13140560Y10552480D01*
G01X13735060Y11827560D02*
G01X13735060Y11906300D01*
G01X13636000Y11830100D02*
G01X13636000Y11906300D01*
G01X13132940Y10156240D02*
G01X13138020Y10156240D01*
G01X12734160Y11065560D02*
G01X12923580Y11065560D01*
G01X12925720Y11067700D01*
G01X13082140Y11228120D02*
G01X13082140Y11258600D01*
G01X13073040Y11267700D02*
G01X13082140Y11258600D01*
G01X12925720Y11267700D02*
G01X13073040Y11267700D01*
G01X13071720Y11217700D02*
G01X13082140Y11228120D01*
G01X12925720Y11217700D02*
G01X13071720Y11217700D01*
G01X11758800Y11167160D02*
G01X11758800Y11713260D01*
G01X11758800Y11167160D02*
G01X11908260Y11017700D01*
G01X11878180Y11959640D02*
G01X11893420Y11944400D01*
G01X11835000Y11959640D02*
G01X11878180Y11959640D01*
G01X11659740Y11784380D02*
G01X11835000Y11959640D01*
G01X11659740Y11116360D02*
G01X11659740Y11784380D01*
G01X11614020Y11865660D02*
G01X11743560Y11995200D01*
G01X11614020Y11085800D02*
G01X11614020Y11865660D01*
G01X11614020Y11085800D02*
G01X11832120Y10867700D01*
G01X11659740Y11116360D02*
G01X11858400Y10917700D01*
G01X11708000Y11743740D02*
G01X11847700Y11883440D01*
G01X11708000Y11139220D02*
G01X11879520Y10967700D01*
G01X11964540Y11614200D02*
G01X11967080Y11611660D01*
G01X11967080Y11535460D02*
G01X11967080Y11611660D01*
G01X11847700Y11883440D02*
G01X11926440Y11883440D01*
G01X11995020Y11952020D01*
G01X11783140Y10817700D02*
G01X12105720Y10817700D01*
G01X11751180Y10849660D02*
G01X11783140Y10817700D01*
G01X11578460Y10849660D02*
G01X11751180Y10849660D01*
G01X11858400Y10917700D02*
G01X12105720Y10917700D01*
G01X11879520Y10967700D02*
G01X12105720Y10967700D01*
G01X11908260Y11017700D02*
G01X12105720Y11017700D01*
G01X11964540Y11482120D02*
G01X11964540Y11532920D01*
G01X11964540Y11334800D02*
G01X11964540Y11482120D01*
G01X11964540Y11532920D02*
G01X11967080Y11535460D01*
G01X11964540Y11334800D02*
G01X11981640Y11317700D01*
G01X12105720Y11317700D01*
G01X13361540Y11177320D02*
G01X13361540Y11228120D01*
G01X13318360Y11271300D02*
G01X13361540Y11228120D01*
G01X13209140Y10966500D02*
G01X13214220Y10971580D01*
G01X13209140Y10966500D02*
G01X13247240Y10966500D01*
G01X13214220Y10971580D02*
G01X13214220Y11040160D01*
G01X13069440Y11040160D02*
G01X13112620Y11040160D01*
G01X13046980Y11017700D02*
G01X13069440Y11040160D01*
G01X12925720Y11017700D02*
G01X13046980Y11017700D01*
G54D34*
G01X13285340Y10930940D02*
G01X13295500Y10920780D01*
G01X13295500Y10900460D02*
G01X13295500Y10920780D01*
G54D33*
G01X13247240Y10966500D02*
G01X13292960Y10920780D01*
G01X13106340Y10967700D02*
G01X13107540Y10966500D01*
G01X12925720Y10967700D02*
G01X13106340Y10967700D01*
G01X12250360Y11117700D02*
G01X12274420Y11141760D01*
G01X12105720Y11117700D02*
G01X12250360Y11117700D01*
G01X12240720Y11355297D02*
G01X12433937Y11162080D01*
G01X12223117Y11372900D02*
G01X12240720Y11355297D01*
G01X12066140Y11474500D02*
G01X12068680Y11477040D01*
G01X12068680Y11535460D01*
G01X12081380Y11372900D02*
G01X12223117Y11372900D01*
G01X12108860Y11464340D02*
G01X12144880Y11500360D01*
G01X12068680Y11464340D02*
G01X12108860Y11464340D01*
G01X12240720Y11355297D02*
G01X12240720Y11452700D01*
G01X12433937Y11162080D02*
G01X12477620Y11162080D01*
G01X12751940Y11276380D02*
G01X12793260Y11317700D01*
G01X12925720Y11317700D01*
G01X12690720Y11230920D02*
G01X12690720Y11452700D01*
G01X12690720Y11230920D02*
G01X12736700Y11184940D01*
G01X12144880Y11441480D02*
G01X12144880Y11500360D01*
G01X12144880Y11441480D02*
G01X12149960Y11436400D01*
G01X12881480Y11464340D02*
G01X12881480Y11494820D01*
G01X12868780Y11451640D02*
G01X12881480Y11464340D01*
G01X12797660Y11451640D02*
G01X12868780Y11451640D01*
G01X12790720Y11452700D02*
G01X12798720Y11452700D01*
G01X12797660Y11451640D02*
G01X12798720Y11452700D01*
G01X12881480Y11494820D02*
G01X12960220Y11494820D01*
G01X12764640Y11601500D02*
G01X12886560Y11601500D01*
G01X12881480Y11596420D02*
G01X12960220Y11596420D01*
G01X12741780Y11578640D02*
G01X12764640Y11601500D01*
G01X12741780Y11453760D02*
G01X12741780Y11578640D01*
G01X12740720Y11452700D02*
G01X12741780Y11453760D01*
G01X12640180Y10632160D02*
G01X12640720Y10632700D01*
G01X12640180Y10483900D02*
G01X12640180Y10632160D01*
G01X12640180Y10483900D02*
G01X12673200Y10450880D01*
G01X12673200Y10415320D02*
G01X12673200Y10450880D01*
G01X12740720Y10497660D02*
G01X12740720Y10632700D01*
G01X12690720Y10494320D02*
G01X12690720Y10632700D01*
G01X13239880Y10867700D02*
G01X13292960Y10920780D01*
G01X12925720Y10867700D02*
G01X13239880Y10867700D01*
G01X12602080Y10219740D02*
G01X12602080Y10242600D01*
G01X12602080Y10435640D01*
G01X12540720Y10348853D02*
G01X12540720Y10632700D01*
G01X12523340Y10331473D02*
G01X12540720Y10348853D01*
G01X12523340Y10224820D02*
G01X12523340Y10331473D01*
G01X12431900Y10133380D02*
G01X12523340Y10224820D01*
G01X12590720Y10447000D02*
G01X12602080Y10435640D01*
G01X12086460Y10133380D02*
G01X12431900Y10133380D01*
G01X12383640Y10242600D02*
G01X12490720Y10349680D01*
G01X12370940Y10237520D02*
G01X12376020Y10237520D01*
G01X12299820Y10242600D02*
G01X12440720Y10383500D01*
G01X12440720Y10632700D01*
G01X12216000Y10243140D02*
G01X12390720Y10417860D01*
G01X12216000Y10242600D02*
G01X12216000Y10243140D01*
G01X12390720Y10417860D02*
G01X12390720Y10632700D01*
G01X12340720Y10453680D02*
G01X12340720Y10632700D01*
G01X12132180Y10245140D02*
G01X12340720Y10453680D01*
G01X12240720Y10429880D02*
G01X12240720Y10632700D01*
G01X12114400Y10303560D02*
G01X12240720Y10429880D01*
G01X12040740Y10303560D02*
G01X12114400Y10303560D01*
G01X12590720Y11452700D02*
G01X12590720Y11653640D01*
G01X12129640Y11560860D02*
G01X12129640Y11619280D01*
G01X12129640Y11560860D02*
G01X12144880Y11545620D01*
G01X12144880Y11500360D02*
G01X12144880Y11545620D01*
G01X12231240Y11619280D02*
G01X12240720Y11609800D01*
G01X12240720Y11452700D02*
G01X12240720Y11609800D01*
G54D34*
G01X13445360Y11362740D02*
G01X13554580Y11362740D01*
G01X13318360Y11271300D02*
G01X13318360Y11362740D01*
G54D33*
G01X13359000Y11179860D02*
G01X13361540Y11177320D01*
G01X13285340Y11179860D02*
G01X13359000Y11179860D01*
G01X12340720Y11452700D02*
G01X12340720Y11867940D01*
G01X12290720Y11452700D02*
G01X12290720Y11862060D01*
G01X11832120Y10867700D02*
G01X12105720Y10867700D01*
G01X12490720Y10349680D02*
G01X12490720Y10632700D01*
G01X12590720Y10447000D02*
G01X12590720Y10632700D01*
G01X12105720Y11067700D02*
G01X12337520Y11067700D01*
G01X12337920Y11068100D01*
G01X12390720Y11354073D02*
G01X12390720Y11452700D01*
G01X12390720Y11354073D02*
G01X12457935Y11286858D01*
G01X12290720Y10632700D02*
G01X12290720Y10784680D01*
G01X12315060Y10809020D01*
G01X12790720Y10632700D02*
G01X12817980Y10632700D01*
G01X12874920Y10689640D01*
G01X12693520Y11652300D02*
G01X12693520Y11710720D01*
G01X12678280Y11725960D02*
G01X12693520Y11710720D01*
G01X12635100Y11725960D02*
G01X12678280Y11725960D01*
G01X12604620Y11756440D02*
G01X12635100Y11725960D01*
G54D34*
G01X13285340Y11078260D02*
G01X13359000Y11078260D01*
G54D33*
G01X13359000Y11078260D02*
G01X13361540Y11078260D01*
G01X13359000Y11078260D02*
G01X13361540Y11075720D01*
G54D34*
G01X13285340Y10930940D02*
G01X13285340Y11078260D01*
G54D33*
G01X12468680Y10086340D02*
G01X12602080Y10219740D01*
G01X12925720Y10767700D02*
G01X13430880Y10767700D01*
G01X13661860Y10536720D01*
G01X13762040Y10536720D01*
G01X13900620Y10536720D01*
G01X13929360Y10337800D02*
G01X13929360Y10353040D01*
G01X13906500Y10375900D02*
G01X13929360Y10353040D01*
G01X13906500Y10375900D02*
G01X13906500Y10431780D01*
G01X12925720Y10817700D02*
G01X13441840Y10817700D01*
G01X13657820Y10601720D01*
G01X13762040Y10601720D01*
G01X13897320Y10601720D01*
G01X13519020Y10440720D02*
G01X13603020Y10440720D01*
G01X13634020Y10471720D01*
G01X13762040Y10471720D01*
G01X13312040Y10535920D02*
G01X13519020Y10535920D01*
G01X13342040Y10471720D02*
G01X13518320Y10471720D01*
G01X13519020Y10472420D01*
G01X13519020Y10440720D02*
G01X13519020Y10472420D01*
G01X13519020Y10535920D01*
G01X13342040Y10406720D02*
G01X13516140Y10406720D01*
G01X13519020Y10403840D01*
G01X13519020Y10440720D01*
G01X13519020Y10213340D02*
G01X13519020Y10403840D01*
G01X13624560Y10210800D02*
G01X13624560Y10287000D01*
G01X13622020Y10289540D02*
G01X13624560Y10287000D01*
G01X13622020Y10289540D02*
G01X13622020Y10378440D01*
G01X13650300Y10406720D01*
G01X13762040Y10406720D01*
G01X13901420Y10601960D02*
G01X14130020Y10601960D01*
G01X13897320Y10601720D02*
G01X13901420Y10605820D01*
G01X14130020Y10601960D02*
G01X14152880Y10579100D01*
G01X14051280Y10337800D02*
G01X14150340Y10337800D01*
G01X14152880Y10335260D01*
G01X13900620Y10536720D02*
G01X13906500Y10530840D01*
G01X13901420Y10703560D02*
G01X14008100Y10703560D01*
G01X14005560Y10383520D02*
G01X14051280Y10337800D01*
G01X13906500Y10533380D02*
G01X13949680Y10533380D01*
G01X14005560Y10477500D01*
G01X14005560Y10383520D02*
G01X14005560Y10477500D01*
G54D34*
G01X15059660Y10441940D02*
G01X15059660Y10568940D01*
G01X14980920Y10363200D02*
G01X15059660Y10441940D01*
G01X14958060Y10568940D02*
G01X14958060Y10761980D01*
G01X14960600Y10764520D01*
G04 Track End*

M02*

