G04 Layer: InnerLayer1*
G04 EasyEDA Pro v2.2.35.2, 2025-02-24 01:09:24*
G04 Gerber Generator version 0.3*
G04 Scale: 100 percent, Rotated: No, Reflected: No*
G04 Dimensions in millimeters*
G04 Leading zeros omitted, absolute positions, 4 integers and 5 decimals*
%FSLAX45Y45*%
%MOMM*%
%ADD10C,0.75508*%
%ADD11C,2.2*%
%ADD12C,0.9*%
%ADD13C,1.6*%
%ADD14C,1.9*%
%ADD15R,1.5X1.5*%
%ADD16C,1.5*%
%ADD17R,1.5X1.5*%
%ADD18R,1.5008X1.5*%
%ADD19R,1.5X1.5*%
%ADD20C,0.6096*%
%ADD21C,0.254*%
G75*


G04 Copper Start*
G36*
G01X15138730Y12398730D02*
G01X15138730Y10001270D01*
G01X10001270Y10001270D01*
G01X10001270Y12398730D01*
G01X15138730Y12398730D01*
G37*
%LPC*%
G36*
G01X10354634Y10845800D02*
G03X10153326Y10845800I-100654J0D01*
G03X10354634Y10845800I100654J0D01*
G37*
G36*
G01X10354634Y11099800D02*
G03X10153326Y11099800I-100654J0D01*
G03X10354634Y11099800I100654J0D01*
G37*
G36*
G01X10449254Y10300000D02*
G03X10177946Y10300000I-135654J0D01*
G03X10449254Y10300000I135654J0D01*
G37*
G36*
G01X10459720Y12038006D02*
G03X10459720Y12239314I0J100654D01*
G03X10459720Y12038006I0J-100654D01*
G37*
G36*
G01X10459720Y11784006D02*
G03X10459720Y11985314I0J100654D01*
G03X10459720Y11784006I0J-100654D01*
G37*
G36*
G01X10459720Y11530006D02*
G03X10459720Y11731314I0J100654D01*
G03X10459720Y11530006I0J-100654D01*
G37*
G36*
G01X10537514Y11451660D02*
G03X10534720Y11454454I-2794J0D01*
G01X10384720Y11454454D01*
G03X10381926Y11451660I0J-2794D01*
G01X10381926Y11301660D01*
G03X10384720Y11298866I2794J0D01*
G01X10534720Y11298866D01*
G03X10537514Y11301660I0J2794D01*
G01X10537514Y11451660D01*
G37*
G36*
G01X10608634Y10845800D02*
G03X10407326Y10845800I-100654J0D01*
G03X10608634Y10845800I100654J0D01*
G37*
G36*
G01X10432980Y11177594D02*
G03X10430186Y11174800I0J-2794D01*
G01X10430186Y11024800D01*
G03X10432980Y11022006I2794J0D01*
G01X10582980Y11022006D01*
G03X10585774Y11024800I0J2794D01*
G01X10585774Y11174800D01*
G03X10582980Y11177594I-2794J0D01*
G01X10432980Y11177594D01*
G37*
G36*
G01X10629646Y10241269D02*
G03X10739123Y10223801I56134J11D01*
G03X10848594Y10241311I53337J17499D01*
G03X10739117Y10258779I-56134J-11D01*
G03X10629646Y10241269I-53337J-17499D01*
G37*
G36*
G01X10713466Y10515600D02*
G03X10825734Y10515600I56134J0D01*
G03X10713466Y10515600I-56134J0D01*
G37*
G36*
G01X10995854Y11030900D02*
G03X10724546Y11030900I-135654J0D01*
G03X10995854Y11030900I135654J0D01*
G37*
G36*
G01X10964427Y10299122D02*
G03X10860805Y10267743I-47507J-29902D01*
G03X10965933Y10241858I56115J1477D01*
G03X11062294Y10244113I47507J29902D01*
G03X11168616Y10267781I50206J25107D01*
G03X11063646Y10296867I-56116J1439D01*
G03X10964427Y10299122I-50206J-25107D01*
G37*
G36*
G01X11008106Y10574020D02*
G03X11120374Y10574020I56134J0D01*
G03X11008106Y10574020I-56134J0D01*
G37*
G36*
G01X11119866Y10784840D02*
G03X11232134Y10784840I56134J0D01*
G03X11119866Y10784840I-56134J0D01*
G37*
G36*
G01X11136246Y11974880D02*
G03X11248514Y11974880I56134J0D01*
G03X11136246Y11974880I-56134J0D01*
G37*
G36*
G01X11386820Y10402894D02*
G03X11386820Y10201586I0J-100654D01*
G03X11386820Y10402894I0J100654D01*
G37*
G36*
G01X11286166Y10481240D02*
G03X11311820Y10455586I25654J0D01*
G01X11461820Y10455586D01*
G03X11487474Y10481240I0J25654D01*
G01X11487474Y10631240D01*
G03X11461820Y10656894I-25654J0D01*
G01X11311820Y10656894D01*
G03X11286166Y10631240I0J-25654D01*
G01X11286166Y10481240D01*
G37*
G36*
G01X11357946Y11100000D02*
G03X11569254Y11100000I105654J0D01*
G03X11357946Y11100000I-105654J0D01*
G37*
G36*
G01X11599098Y10705190D02*
G03X11618160Y10809974I-7939J55570D01*
G03X11570521Y10905230I-39700J39686D01*
G03X11551460Y10800446I7939J-55570D01*
G03X11599098Y10705190I39700J-39686D01*
G37*
G36*
G01X11524866Y11944400D02*
G03X11637134Y11944400I56134J0D01*
G03X11524866Y11944400I-56134J0D01*
G37*
G36*
G01X11687426Y11995200D02*
G03X11799694Y11995200I56134J0D01*
G03X11687426Y11995200I-56134J0D01*
G37*
G36*
G01X11831256Y11334404D02*
G03X11943524Y11334404I56134J0D01*
G03X11831256Y11334404I-56134J0D01*
G37*
G36*
G01X11983493Y11786802D02*
G03X12003600Y11896546I3907J55998D01*
G03X12038610Y11987389I-8580J55474D01*
G03X11942503Y11971844I-43590J-35369D01*
G03X11832269Y11959770I-54163J-14744D01*
G03X11940857Y11937276I56070J-2670D01*
G03X11978820Y11898274I54163J14744D01*
G03X11983493Y11786802I8580J-55474D01*
G37*
G36*
G01X12257910Y10279944D02*
G03X12174090Y10279944I-41910J-37344D01*
G03X12092825Y10282628I-41910J-37344D01*
G03X11994034Y10334698I-52085J20932D01*
G03X12080095Y10263532I46706J-31138D01*
G03X12174090Y10205256I52085J-20932D01*
G03X12257910Y10205256I41910J37344D01*
G03X12341730Y10205256I41910J37344D01*
G03X12439774Y10242600I41910J37344D01*
G03X12341730Y10279944I-56134J0D01*
G03X12257910Y10279944I-41910J-37344D01*
G37*
G36*
G01X12093826Y11436400D02*
G03X12206094Y11436400I56134J0D01*
G03X12093826Y11436400I-56134J0D01*
G37*
G36*
G01X12093826Y11819940D02*
G03X12206094Y11819940I56134J0D01*
G03X12093826Y11819940I-56134J0D01*
G37*
G36*
G01X12681647Y11238026D02*
G01X12710952Y11238026D01*
G03X12713086Y11235866I40988J38354D01*
G03X12691223Y11152033I23614J-50926D01*
G03X12777688Y11146586I45477J32907D01*
G01X13200953Y11146586D01*
G01X13574580Y10772960D01*
G03X13601700Y10761726I27120J27120D01*
G01X14122052Y10761726D01*
G03X14219174Y10800080I40988J38354D01*
G03X14122052Y10838434I-56134J0D01*
G01X13617587Y10838434D01*
G01X13243960Y11212060D01*
G03X13216840Y11223294I-27120J-27120D01*
G01X12777688Y11223294D01*
G03X12775554Y11225454I-40988J-38354D01*
G03X12797417Y11309287I-23614J50926D01*
G03X12710952Y11314734I-45477J-32907D01*
G01X12665760Y11314734D01*
G03X12638640Y11303500I0J-38354D01*
G01X12535573Y11200434D01*
G01X12518608Y11200434D01*
G03X12436632Y11200434I-40988J-38354D01*
G01X12315829Y11200434D01*
G03X12294713Y11194098I0J-38354D01*
G03X12218517Y11146849I-20293J-52338D01*
G03X12284928Y11086618I55903J-5089D01*
G03X12367260Y11020244I52991J-18518D01*
G03X12345455Y11123726I-29340J47856D01*
G01X12436632Y11123726D01*
G03X12439390Y11120976I40988J38354D01*
G03X12450500Y11096940I38230J3084D01*
G01X12656320Y10891120D01*
G03X12683440Y10879886I27120J27120D01*
G01X12705872Y10879886D01*
G03X12802994Y10918240I40988J38354D01*
G03X12705872Y10956594I-56134J0D01*
G01X12699327Y10956594D01*
G01X12532195Y11123726D01*
G01X12551460Y11123726D01*
G03X12578580Y11134960I0J38354D01*
G01X12681647Y11238026D01*
G37*
G36*
G01X12411326Y11289080D02*
G03X12523594Y11289080I56134J0D01*
G03X12411326Y11289080I-56134J0D01*
G37*
G36*
G01X12558900Y10278468D02*
G03X12459586Y10242600I-43180J-35868D01*
G03X12558900Y10206732I56134J0D01*
G03X12645260Y10206732I43180J35868D01*
G03X12744574Y10242600I43180J35868D01*
G03X12645260Y10278468I-56134J0D01*
G03X12558900Y10278468I-43180J-35868D01*
G37*
G36*
G01X12548486Y11756440D02*
G03X12660754Y11756440I56134J0D01*
G03X12548486Y11756440I-56134J0D01*
G37*
G36*
G01X12678026Y11065560D02*
G03X12790294Y11065560I56134J0D01*
G03X12678026Y11065560I-56134J0D01*
G37*
G36*
G01X12754226Y10242600D02*
G03X12866494Y10242600I56134J0D01*
G03X12754226Y10242600I-56134J0D01*
G37*
G36*
G01X12871066Y10689640D02*
G03X12983334Y10689640I56134J0D01*
G03X12871066Y10689640I-56134J0D01*
G37*
G36*
G01X12906626Y11416080D02*
G03X13018894Y11416080I56134J0D01*
G03X12906626Y11416080I-56134J0D01*
G37*
G36*
G01X12909166Y10407700D02*
G03X13021434Y10407700I56134J0D01*
G03X12909166Y10407700I-56134J0D01*
G37*
G36*
G01X13076806Y10156240D02*
G03X13189074Y10156240I56134J0D01*
G03X13076806Y10156240I-56134J0D01*
G37*
G36*
G01X13084426Y10552480D02*
G03X13196694Y10552480I56134J0D01*
G03X13084426Y10552480I-56134J0D01*
G37*
G36*
G01X13236826Y10920780D02*
G03X13349094Y10920780I56134J0D01*
G03X13236826Y10920780I-56134J0D01*
G37*
G36*
G01X13262226Y11271300D02*
G03X13374494Y11271300I56134J0D01*
G03X13262226Y11271300I-56134J0D01*
G37*
G36*
G01X13464286Y10213340D02*
G03X13576554Y10213340I56134J0D01*
G03X13464286Y10213340I-56134J0D01*
G37*
G36*
G01X13557946Y11100000D02*
G03X13769254Y11100000I105654J0D01*
G03X13557946Y11100000I-105654J0D01*
G37*
G36*
G01X13579866Y11906300D02*
G03X13692134Y11906300I56134J0D01*
G03X13579866Y11906300I-56134J0D01*
G37*
G36*
G01X13584840Y11733686D02*
G03X13697108Y11733686I56134J0D01*
G03X13584840Y11733686I-56134J0D01*
G37*
G36*
G01X13704326Y11733580D02*
G03X13816594Y11733580I56134J0D01*
G03X13704326Y11733580I-56134J0D01*
G37*
G36*
G01X13757526Y10201960D02*
G03X13869794Y10201960I56134J0D01*
G03X13757526Y10201960I-56134J0D01*
G37*
G36*
G01X14261154Y10417880D02*
G03X14235500Y10443534I-25654J0D01*
G01X14085500Y10443534D01*
G03X14059846Y10417880I0J-25654D01*
G01X14059846Y10267880D01*
G03X14085500Y10242226I25654J0D01*
G01X14235500Y10242226D01*
G03X14261154Y10267880I0J25654D01*
G01X14261154Y10417880D01*
G37*
G36*
G01X14160500Y10496226D02*
G03X14160500Y10697534I0J100654D01*
G03X14160500Y10496226I0J-100654D01*
G37*
G36*
G01X14094206Y10934700D02*
G03X14206474Y10934700I56134J0D01*
G03X14094206Y10934700I-56134J0D01*
G37*
G36*
G01X14229346Y11657400D02*
G03X14370654Y11657400I70654J0D01*
G03X14229346Y11657400I-70654J0D01*
G37*
G36*
G01X14565654Y12150000D02*
G03X14294346Y12150000I-135654J0D01*
G03X14565654Y12150000I135654J0D01*
G37*
G36*
G01X14565654Y10300000D02*
G03X14294346Y10300000I-135654J0D01*
G03X14565654Y10300000I135654J0D01*
G37*
G36*
G01X14467586Y10911840D02*
G03X14579854Y10911840I56134J0D01*
G03X14467586Y10911840I-56134J0D01*
G37*
G36*
G01X14694800Y10485954D02*
G03X14694800Y10244646I0J-120654D01*
G03X14694800Y10485954I0J120654D01*
G37*
G36*
G01X14694800Y11215954D02*
G03X14694800Y10974646I0J-120654D01*
G03X14694800Y11215954I0J120654D01*
G37*
G36*
G01X14691106Y11991340D02*
G03X14803374Y11991340I56134J0D01*
G03X14691106Y11991340I-56134J0D01*
G37*
G36*
G01X14805406Y10568940D02*
G03X14917674Y10568940I56134J0D01*
G03X14805406Y10568940I-56134J0D01*
G37*
G36*
G01X14984800Y10485954D02*
G03X14984800Y10244646I0J-120654D01*
G03X14984800Y10485954I0J120654D01*
G37*
G36*
G01X14984800Y11215954D02*
G03X14984800Y10974646I0J-120654D01*
G03X14984800Y11215954I0J120654D01*
G37*
G36*
G01X14929346Y11657400D02*
G03X15070654Y11657400I70654J0D01*
G03X14929346Y11657400I-70654J0D01*
G37*
%LPD*%
G54D10*
G01X10459720Y11301914D02*
G01X10459720Y11298866D01*
G01X10459720Y11451406D02*
G01X10459720Y11454454D01*
G01X10384974Y11376660D02*
G01X10381926Y11376660D01*
G01X10534466Y11376660D02*
G01X10537514Y11376660D01*
G01X10582726Y11099800D02*
G01X10585774Y11099800D01*
G01X10433234Y11099800D02*
G01X10430186Y11099800D01*
G01X10507980Y11025054D02*
G01X10507980Y11022006D01*
G01X10507980Y11174546D02*
G01X10507980Y11177594D01*
G04 Copper End*

G04 Pad Start*
G54D11*
G01X14430000Y12150000D03*
G01X14430000Y10300000D03*
G01X10313600Y10300000D03*
G01X10860200Y11030900D03*
G54D12*
G01X14300000Y11657400D03*
G01X15000000Y11657400D03*
G54D13*
G01X11463600Y11100000D03*
G01X13663600Y11100000D03*
G54D14*
G01X14694800Y10365300D03*
G01X14694800Y11095300D03*
G01X14984800Y11095300D03*
G01X14984800Y10365300D03*
G54D15*
G01X10507980Y11099800D03*
G54D16*
G01X10507980Y10845800D03*
G01X10253980Y11099800D03*
G01X10253980Y10845800D03*
G01X10459720Y12138660D03*
G01X10459720Y11884660D03*
G01X10459720Y11630660D03*
G54D17*
G01X10459720Y11376660D03*
G54D16*
G01X11386820Y10302240D03*
G54D19*
G01X11386820Y10556240D03*
G54D16*
G01X14160500Y10596880D03*
G54D17*
G01X14160500Y10342880D03*
G04 Pad End*

G04 Via Start*
G54D20*
G01X11112500Y10269220D03*
G01X11013440Y10271760D03*
G01X10916920Y10269220D03*
G01X10685780Y10241280D03*
G01X10792460Y10241300D03*
G01X11064240Y10574020D03*
G01X10769600Y10515600D03*
G01X14523720Y10911840D03*
G01X13760460Y11733580D03*
G01X13640974Y11733686D03*
G01X11887390Y11334404D03*
G01X14861540Y10568940D03*
G01X14163040Y10800080D03*
G01X14150340Y10934700D03*
G01X11529060Y10398760D03*
G01X11181080Y10688320D03*
G01X11581000Y11944400D03*
G01X11581000Y12035840D03*
G01X11192380Y11974880D03*
G01X13624560Y10210800D03*
G01X13520420Y10213340D03*
G01X12688440Y10242600D03*
G01X12810360Y10242600D03*
G01X11591160Y10760760D03*
G01X12398880Y11804700D03*
G01X13735060Y11906300D03*
G01X13636000Y11906300D03*
G01X13150720Y10250220D03*
G01X12734160Y11065560D03*
G01X12746860Y10918240D03*
G01X13929360Y10337800D03*
G01X11995020Y11952020D03*
G01X12149960Y11819940D03*
G01X13318360Y11271300D03*
G01X12274420Y11141760D03*
G01X12477620Y11162080D03*
G01X12751940Y11276380D03*
G01X12736700Y11184940D03*
G01X13813660Y10201960D03*
G01X13140560Y10552480D03*
G01X12602080Y10242600D03*
G01X12965300Y10407700D03*
G01X12383640Y10242600D03*
G01X12149960Y11436400D03*
G01X13554580Y11362740D03*
G01X12515720Y10242600D03*
G01X12216000Y10242600D03*
G01X12132180Y10242600D03*
G01X12299820Y10242600D03*
G01X11578460Y10849660D03*
G01X13132940Y10156240D03*
G01X12337920Y11068100D03*
G01X12467460Y11289080D03*
G01X12962760Y11416080D03*
G01X11967080Y11687860D03*
G01X12315060Y10966500D03*
G01X13292960Y10920780D03*
G01X12040740Y10303560D03*
G01X12927200Y10689640D03*
G01X11743560Y11995200D03*
G01X11888340Y11957100D03*
G01X11987400Y11842800D03*
G01X12604620Y11756440D03*
G01X14747240Y11991340D03*
G01X11176000Y10784840D03*
G01X14008100Y10703560D03*
G04 Via End*

G04 Track Start*
G54D21*
G01X13601700Y10800080D02*
G01X14163040Y10800080D01*
G01X13216840Y11184940D02*
G01X13601700Y10800080D01*
G01X12736700Y11184940D02*
G01X13216840Y11184940D01*
G01X12477620Y11124060D02*
G01X12477620Y11162080D01*
G01X12477620Y11124060D02*
G01X12683440Y10918240D01*
G01X12746860Y10918240D01*
G01X12665760Y11276380D02*
G01X12751940Y11276380D01*
G01X12551460Y11162080D02*
G01X12665760Y11276380D01*
G01X12477620Y11162080D02*
G01X12551460Y11162080D01*
G01X12315829Y11162080D02*
G01X12477620Y11162080D01*
G01X12295509Y11141760D02*
G01X12315829Y11162080D01*
G01X12274420Y11141760D02*
G01X12295509Y11141760D01*
G04 Track End*

M02*

