G04 Layer: TopSolderMaskLayer*
G04 EasyEDA Pro v2.2.35.2, 2025-02-24 01:09:24*
G04 Gerber Generator version 0.3*
G04 Scale: 100 percent, Rotated: No, Reflected: No*
G04 Dimensions in millimeters*
G04 Leading zeros omitted, absolute positions, 4 integers and 5 decimals*
%FSLAX45Y45*%
%MOMM*%
%AMRoundRect*1,1,$1,$2,$3*1,1,$1,$4,$5*1,1,$1,0-$2,0-$3*1,1,$1,0-$4,0-$5*20,1,$1,$2,$3,$4,$5,0*20,1,$1,$4,$5,0-$2,0-$3,0*20,1,$1,0-$2,0-$3,0-$4,0-$5,0*20,1,$1,0-$4,0-$5,$2,$3,0*4,1,4,$2,$3,$4,$5,0-$2,0-$3,0-$4,0-$5,$2,$3,0*%
%ADD10C,2.4032*%
%ADD11RoundRect,0.09297X0.12701X0.22701X0.12701X-0.22701*%
%ADD12RoundRect,0.1836X0.8598X1.1598X0.8598X-1.1598*%
%ADD13RoundRect,0.1836X-1.1598X0.8598X1.1598X0.8598*%
%ADD14C,1.1032*%
%ADD15C,1.8032*%
%ADD16RoundRect,0.1016X0.2667X0.2032X0.2667X-0.2032*%
%ADD17RoundRect,0.095X-0.141X-0.316X-0.141X0.316*%
%ADD18RoundRect,0.11094X-0.60803X-0.38303X-0.60803X0.38303*%
%ADD19RoundRect,0.1016X-0.2032X0.2667X0.2032X0.2667*%
%ADD20RoundRect,0.1016X-0.2667X-0.2032X-0.2667X0.2032*%
%ADD21RoundRect,0.15765X0.82278X0.27278X0.82278X-0.27278*%
%ADD22C,2.1032*%
%ADD23RoundRect,0.10886X-0.39007X-0.32657X-0.39007X0.32657*%
%ADD24RoundRect,0.10886X-0.32657X0.39007X0.32657X0.39007*%
%ADD25RoundRect,0.1016X0.2032X-0.2667X-0.2032X-0.2667*%
%ADD26RoundRect,0.152X-0.2256X0.7756X0.2256X0.7756*%
%ADD27RoundRect,0.152X-0.2256X0.9006X0.2256X0.9006*%
%ADD28RoundRect,0.152X-0.7756X-0.2256X-0.7756X0.2256*%
%ADD29RoundRect,0.18154X0.76083X-0.76083X-0.76083X-0.76083*%
%ADD30C,1.7032*%
%ADD31RoundRect,0.18154X-0.76083X-0.76083X-0.76083X0.76083*%
%ADD32RoundRect,0.18154X0.76083X0.76083X0.76083X-0.76083*%
%ADD33C,0.8128*%
G75*


G04 Pad Start*
G54D10*
G01X14430000Y12150000D03*
G01X14430000Y10300000D03*
G01X10313600Y10300000D03*
G01X10860200Y11030900D03*
G54D11*
G01X14446880Y11084200D03*
G01X14406880Y11084200D03*
G01X14366880Y11084200D03*
G01X14366880Y10912200D03*
G01X14406880Y10912200D03*
G01X14446880Y10912200D03*
G54D12*
G01X14065000Y11657400D03*
G54D13*
G01X14710000Y11322400D03*
G01X14980000Y11992400D03*
G54D14*
G01X14300000Y11657400D03*
G01X15000000Y11657400D03*
G54D15*
G01X11463600Y11100000D03*
G01X13663600Y11100000D03*
G54D16*
G01X11494640Y12046000D03*
G01X11494640Y11944400D03*
G54D17*
G01X13715640Y10506060D03*
G01X13780640Y10506060D03*
G01X13845640Y10506060D03*
G01X13845640Y10736060D03*
G01X13780640Y10736060D03*
G01X13715640Y10736060D03*
G54D18*
G01X13780640Y10621060D03*
G54D16*
G01X13338680Y10737900D03*
G01X13338680Y10839500D03*
G54D19*
G01X12477620Y11817400D03*
G01X12579220Y11817400D03*
G54D20*
G01X11786740Y10966500D03*
G01X11786740Y11068100D03*
G54D21*
G01X14694800Y10650300D03*
G01X14694800Y10730300D03*
G01X14694800Y10810300D03*
G01X14694800Y10570300D03*
G01X14694800Y10890300D03*
G54D22*
G01X14694800Y10365300D03*
G01X14694800Y11095300D03*
G01X14984800Y11095300D03*
G01X14984800Y10365300D03*
G54D20*
G01X11868020Y11560860D03*
G01X11868020Y11459260D03*
G54D16*
G01X13224380Y10344200D03*
G01X13224380Y10445800D03*
G54D20*
G01X13956160Y10816540D03*
G01X13956160Y10918140D03*
G54D23*
G01X14052680Y10933380D03*
G01X14052680Y10806380D03*
G54D24*
G01X13826360Y10405160D03*
G01X13699360Y10405160D03*
G54D19*
G01X13714600Y10311180D03*
G01X13816200Y10311180D03*
G54D20*
G01X13329920Y11043920D03*
G01X13329920Y11145520D03*
G01X13241020Y11041380D03*
G01X13241020Y11142980D03*
G54D16*
G01X13234540Y11311940D03*
G01X13234540Y11210340D03*
G54D19*
G01X13071980Y10313720D03*
G01X12970380Y10313720D03*
G54D25*
G01X11789280Y11149380D03*
G01X11890880Y11149380D03*
G54D19*
G01X11115040Y10180320D03*
G01X11013440Y10180320D03*
G54D16*
G01X13247240Y10560100D03*
G01X13247240Y10661700D03*
G54D20*
G01X13140560Y10445800D03*
G01X13140560Y10344200D03*
G54D26*
G01X12123749Y11647500D03*
G01X12203750Y11647500D03*
G01X12283750Y11647500D03*
G01X12363750Y11647500D03*
G01X12443750Y11647500D03*
G54D27*
G01X12523750Y11635000D03*
G54D26*
G01X12603750Y11647500D03*
G01X12683750Y11647500D03*
G01X12763750Y11647500D03*
G01X12843750Y11647500D03*
G01X12923750Y11647500D03*
G01X13003750Y11647500D03*
G54D28*
G01X13110250Y11541000D03*
G01X13110250Y11461000D03*
G01X13110250Y11381000D03*
G01X13110250Y11301000D03*
G01X13110250Y11221000D03*
G01X13110250Y11141000D03*
G01X13110250Y11061000D03*
G01X13110250Y10981000D03*
G01X13110250Y10901000D03*
G01X13110250Y10820999D03*
G01X13110250Y10740999D03*
G01X13110250Y10660999D03*
G54D26*
G01X13003750Y10554500D03*
G01X12923750Y10554500D03*
G01X12843750Y10554500D03*
G01X12763750Y10554500D03*
G01X12683750Y10554500D03*
G01X12603750Y10554500D03*
G01X12523750Y10554500D03*
G01X12443750Y10554500D03*
G01X12363750Y10554500D03*
G01X12283750Y10554500D03*
G01X12203750Y10554500D03*
G01X12123749Y10554500D03*
G54D28*
G01X12017250Y10660999D03*
G01X12017250Y10740999D03*
G01X12017250Y10820999D03*
G01X12017250Y10901000D03*
G01X12017250Y10981000D03*
G01X12017250Y11061000D03*
G01X12017250Y11141000D03*
G01X12017250Y11221000D03*
G01X12017250Y11301000D03*
G01X12017250Y11381000D03*
G01X12017250Y11461000D03*
G01X12017250Y11541000D03*
G54D20*
G01X11868020Y10966500D03*
G01X11868020Y11068100D03*
G54D29*
G01X10507980Y11099800D03*
G54D30*
G01X10507980Y10845800D03*
G01X10253980Y11099800D03*
G01X10253980Y10845800D03*
G01X10459720Y12138660D03*
G01X10459720Y11884660D03*
G01X10459720Y11630660D03*
G54D31*
G01X10459720Y11376660D03*
G54D30*
G01X11386820Y10302240D03*
G54D32*
G01X11386820Y10556240D03*
G54D30*
G01X14160500Y10596880D03*
G54D31*
G01X14160500Y10342880D03*
G04 Pad End*

G04 Via Start*
G54D33*
G01X11112500Y10269220D03*
G01X11013440Y10271760D03*
G01X10916920Y10269220D03*
G01X10685780Y10241280D03*
G01X10792460Y10241300D03*
G01X11064240Y10574020D03*
G01X10769600Y10515600D03*
G01X14523720Y10911840D03*
G01X13760460Y11733580D03*
G01X13640974Y11733686D03*
G01X11887390Y11334404D03*
G01X14861540Y10568940D03*
G01X14163040Y10800080D03*
G01X14150340Y10934700D03*
G01X11529060Y10398760D03*
G01X11181080Y10688320D03*
G01X11581000Y11944400D03*
G01X11581000Y12035840D03*
G01X11192380Y11974880D03*
G01X13624560Y10210800D03*
G01X13520420Y10213340D03*
G01X12688440Y10242600D03*
G01X12810360Y10242600D03*
G01X11591160Y10760760D03*
G01X12398880Y11804700D03*
G01X13735060Y11906300D03*
G01X13636000Y11906300D03*
G01X13150720Y10250220D03*
G01X12734160Y11065560D03*
G01X12746860Y10918240D03*
G01X13929360Y10337800D03*
G01X11995020Y11952020D03*
G01X12149960Y11819940D03*
G01X13318360Y11271300D03*
G01X12274420Y11141760D03*
G01X12477620Y11162080D03*
G01X12751940Y11276380D03*
G01X12736700Y11184940D03*
G01X13813660Y10201960D03*
G01X13140560Y10552480D03*
G01X12602080Y10242600D03*
G01X12965300Y10407700D03*
G01X12383640Y10242600D03*
G01X12149960Y11436400D03*
G01X13554580Y11362740D03*
G01X12515720Y10242600D03*
G01X12216000Y10242600D03*
G01X12132180Y10242600D03*
G01X12299820Y10242600D03*
G01X11578460Y10849660D03*
G01X13132940Y10156240D03*
G01X12337920Y11068100D03*
G01X12467460Y11289080D03*
G01X12962760Y11416080D03*
G01X11967080Y11687860D03*
G01X12315060Y10966500D03*
G01X13292960Y10920780D03*
G01X12040740Y10303560D03*
G01X12927200Y10689640D03*
G01X11743560Y11995200D03*
G01X11888340Y11957100D03*
G01X11987400Y11842800D03*
G01X12604620Y11756440D03*
G01X14747240Y11991340D03*
G01X11176000Y10784840D03*
G01X14008100Y10703560D03*
G04 Via End*

M02*

