G04 Layer: CustomLayer2*
G04 EasyEDA Pro v2.2.35.2, 2025-02-24 01:09:24*
G04 Gerber Generator version 0.3*
G04 Scale: 100 percent, Rotated: No, Reflected: No*
G04 Dimensions in millimeters*
G04 Leading zeros omitted, absolute positions, 4 integers and 5 decimals*
%FSLAX45Y45*%
%MOMM*%
%ADD10C,0.0254*%
%ADD11C,0.254*%
%ADD12C,0.1*%
G75*


G04 PolygonModel Start*
G54D10*
G01X15160000Y11397400D02*
G01X15160000Y11922400D01*
G01X14140000Y11922400D02*
G01X15160000Y11922400D01*
G01X14140000Y11397400D02*
G01X14140000Y11922400D01*
G01X14140000Y11397400D02*
G01X15160000Y11397400D01*
G01X15160000Y11857400D02*
G01X15300000Y11857400D01*
G01X15300000Y11457400D02*
G01X15300000Y11857400D01*
G01X15160000Y11457400D02*
G01X15300000Y11457400D01*
G36*
G01X15160051Y11857349D02*
G01X15299949Y11857349D01*
G01X15299949Y11457451D01*
G01X15160051Y11457451D01*
G01X15160051Y11857349D01*
G37*
G36*
G01X14140051Y11922349D02*
G01X15159949Y11922349D01*
G01X15159949Y11397451D01*
G01X14140051Y11397451D01*
G01X14140051Y11922349D01*
G37*
G54D11*
G01X11991250Y11671500D02*
G01X11992250Y10528500D01*
G01X11992250Y10528500D02*
G01X13135250Y10528500D01*
G01X11992250Y11671500D02*
G01X13135250Y11671500D01*
G01X13135250Y10528500D02*
G01X13135250Y11671500D01*
G54D12*
G01X12165720Y11392700D02*
G01X12865720Y11392700D01*
G01X12165720Y10692700D02*
G01X12865720Y10692700D01*
G01X12165720Y10692700D02*
G01X12165720Y11392700D01*
G01X12865720Y10692700D02*
G01X12865720Y11392700D01*
G36*
G01X12865720Y11392700D02*
G01X12865720Y10692700D01*
G01X12165720Y10692700D01*
G01X12165720Y11392700D01*
G01X12865720Y11392700D01*
G37*
G01X13392040Y10664220D02*
G01X13712040Y10664220D01*
G01X13392040Y10344220D02*
G01X13712040Y10344220D01*
G01X13712040Y10344220D02*
G01X13712040Y10664220D01*
G01X13392040Y10344220D02*
G01X13392040Y10664220D01*
G36*
G01X13307040Y10654220D02*
G01X13307040Y10354220D01*
G01X13797040Y10354220D01*
G01X13797040Y10654220D01*
G01X13307040Y10654220D01*
G37*
G01X10619600Y10360520D02*
G01X10919600Y10360520D01*
G01X10619600Y10660520D02*
G01X10919600Y10660520D01*
G01X10619600Y10360520D02*
G01X10619600Y10660520D01*
G01X10919600Y10360520D02*
G01X10919600Y10660520D01*

G04 Circle Start*
G01X12205720Y11302700D02*
G03X12305720Y11302700I50000J0D01*
G03X12205720Y11302700I-50000J0D01*
G01X13432040Y10434220D02*
G03X13532040Y10434220I50000J0D01*
G03X13432040Y10434220I-50000J0D01*
G04 Circle End*

M02*

