G04 Layer: CustomLayer3*
G04 EasyEDA Pro v2.2.35.2, 2025-02-24 01:09:24*
G04 Gerber Generator version 0.3*
G04 Scale: 100 percent, Rotated: No, Reflected: No*
G04 Dimensions in millimeters*
G04 Leading zeros omitted, absolute positions, 4 integers and 5 decimals*
%FSLAX45Y45*%
%MOMM*%
%ADD10C,0.0254*%
%ADD11C,0.254*%
%ADD12C,0.1*%
%ADD13C,0.2*%
G75*


G04 PolygonModel Start*
G54D10*
G01X15160000Y11457400D02*
G01X15300000Y11457400D01*
G01X15300000Y11457400D02*
G01X15300000Y11857400D01*
G01X15160000Y11857400D02*
G01X15300000Y11857400D01*
G01X14140000Y11397400D02*
G01X15160000Y11397400D01*
G01X14140000Y11397400D02*
G01X14140000Y11922400D01*
G01X14140000Y11922400D02*
G01X15160000Y11922400D01*
G01X15160000Y11397400D02*
G01X15160000Y11922400D01*
G54D11*
G01X14569800Y11230300D02*
G01X15174800Y11230300D01*
G01X14569800Y10230300D02*
G01X15174800Y10230300D01*
G01X15174800Y10230300D02*
G01X15174800Y11230300D01*
G01X14569800Y10230300D02*
G01X14569800Y11230300D01*
G54D12*
G01X11950720Y11607700D02*
G01X13080720Y11607700D01*
G01X11950720Y10477700D02*
G01X13080720Y10477700D01*
G01X11950720Y10477700D02*
G01X11950720Y11607700D01*
G01X13080720Y10477700D02*
G01X13080720Y11607700D01*
G01X12515720Y10992700D02*
G01X12515720Y11092700D01*
G01X12465720Y11042700D02*
G01X12565720Y11042700D01*
G01X13552040Y10454220D02*
G01X13552040Y10554220D01*
G01X13502040Y10504220D02*
G01X13602040Y10504220D01*
G01X13232040Y10689220D02*
G01X13872040Y10689220D01*
G01X13232040Y10319220D02*
G01X13872040Y10319220D01*
G01X13872040Y10319220D02*
G01X13872040Y10689220D01*
G01X13232040Y10319220D02*
G01X13232040Y10689220D01*
G54D13*
G01X11214120Y11380660D02*
G01X11534120Y11380660D01*
G01X11214120Y11380660D02*
G01X11534120Y11380660D01*
G01X11534120Y11380660D02*
G01X11534120Y11880660D01*
G01X11214120Y11380660D02*
G01X11214120Y11880660D01*
G01X11214120Y11380660D02*
G01X11214120Y11880660D01*
G01X11214120Y11880660D02*
G01X11534120Y11880660D01*

M02*

