G04 Layer: BottomSolderMaskLayer*
G04 EasyEDA Pro v2.2.35.2, 2025-02-24 01:09:24*
G04 Gerber Generator version 0.3*
G04 Scale: 100 percent, Rotated: No, Reflected: No*
G04 Dimensions in millimeters*
G04 Leading zeros omitted, absolute positions, 4 integers and 5 decimals*
%FSLAX45Y45*%
%MOMM*%
%AMRoundRect*1,1,$1,$2,$3*1,1,$1,$4,$5*1,1,$1,0-$2,0-$3*1,1,$1,0-$4,0-$5*20,1,$1,$2,$3,$4,$5,0*20,1,$1,$4,$5,0-$2,0-$3,0*20,1,$1,0-$2,0-$3,0-$4,0-$5,0*20,1,$1,0-$4,0-$5,$2,$3,0*4,1,4,$2,$3,$4,$5,0-$2,0-$3,0-$4,0-$5,$2,$3,0*%
%ADD10C,2.4032*%
%ADD11C,1.143*%
%ADD12RoundRect,0.1016X0.2032X-0.2667X-0.2032X-0.2667*%
%ADD13RoundRect,0.1016X-0.2667X-0.2032X-0.2667X0.2032*%
%ADD14RoundRect,0.10886X0.32657X-0.39007X-0.32657X-0.39007*%
%ADD15RoundRect,0.1016X-0.2032X0.2667X0.2032X0.2667*%
%ADD16C,1.1032*%
%ADD17C,1.8032*%
%ADD18RoundRect,0.1016X0.2667X0.2032X0.2667X-0.2032*%
%ADD19C,2.1032*%
%ADD20O,0.5032X2.3032*%
%ADD21O,2.3032X0.5032*%
%ADD22O,1.9032X0.5782*%
%ADD23RoundRect,0.1775X-0.76285X-0.61285X-0.76285X0.61285*%
%ADD24RoundRect,0.09789X-0.36456X-0.16456X-0.36456X0.16456*%
%ADD25RoundRect,0.09789X-0.16456X-0.36456X-0.16456X0.36456*%
%ADD26RoundRect,0.09789X-0.16456X-0.16456X-0.16456X0.16456*%
%ADD27RoundRect,0.18154X0.76083X-0.76083X-0.76083X-0.76083*%
%ADD28C,1.7032*%
%ADD29RoundRect,0.18154X-0.76083X-0.76083X-0.76083X0.76083*%
%ADD30RoundRect,0.18154X0.76083X0.76083X0.76083X-0.76083*%
%ADD31C,0.8128*%
G75*


G04 Pad Start*
G54D10*
G01X14430000Y12150000D03*
G01X14430000Y10300000D03*
G01X10313600Y10300000D03*
G01X10860200Y11030900D03*
G54D11*
G01X14960600Y10764520D03*
G01X13319760Y11501120D03*
G01X13936980Y10205720D03*
G54D12*
G01X10683240Y10132060D03*
G01X10784840Y10132060D03*
G54D13*
G01X11831320Y11557000D03*
G01X11831320Y11455400D03*
G54D14*
G01X14630400Y10568940D03*
G01X14757400Y10568940D03*
G54D15*
G01X14958060Y10568940D03*
G01X15059660Y10568940D03*
G54D16*
G01X14300000Y11657400D03*
G01X15000000Y11657400D03*
G54D17*
G01X11463600Y11100000D03*
G01X13663600Y11100000D03*
G54D12*
G01X13737600Y11819940D03*
G01X13636000Y11819940D03*
G54D15*
G01X12045820Y11695480D03*
G01X12147420Y11695480D03*
G01X13111480Y10962640D03*
G01X13213080Y10962640D03*
G01X13111480Y11046460D03*
G01X13213080Y11046460D03*
G54D13*
G01X13901420Y10703560D03*
G01X13901420Y10601960D03*
G54D18*
G01X13906500Y10431780D03*
G01X13906500Y10533380D03*
G54D13*
G01X12066140Y11372900D03*
G01X12066140Y11474500D03*
G54D18*
G01X13285340Y11179860D03*
G01X13285340Y11078260D03*
G01X13366620Y11179860D03*
G01X13366620Y11078260D03*
G54D14*
G01X13318360Y11362740D03*
G01X13445360Y11362740D03*
G54D18*
G01X12881480Y11596420D03*
G01X12881480Y11494820D03*
G01X12975460Y11596420D03*
G01X12975460Y11494820D03*
G01X12673200Y10415320D03*
G01X12673200Y10313720D03*
G54D12*
G01X12231240Y11619280D03*
G01X12129640Y11619280D03*
G54D15*
G01X12693520Y11652300D03*
G01X12591920Y11652300D03*
G54D12*
G01X11374120Y12059920D03*
G01X11475720Y12059920D03*
G01X12068680Y11535460D03*
G01X11967080Y11535460D03*
G54D19*
G01X14694800Y10365300D03*
G01X14694800Y11095300D03*
G01X14984800Y11095300D03*
G01X14984800Y10365300D03*
G54D15*
G01X11375260Y11977420D03*
G01X11476860Y11977420D03*
G01X10675620Y10840720D03*
G01X10777220Y10840720D03*
G54D13*
G01X10881360Y10713720D03*
G01X10881360Y10815320D03*
G01X11005820Y10668000D03*
G01X11005820Y10769600D03*
G01X11084560Y10668000D03*
G01X11084560Y10769600D03*
G54D12*
G01X13622020Y10289540D03*
G01X13520420Y10289540D03*
G54D13*
G01X11617960Y10401300D03*
G01X11617960Y10299700D03*
G54D18*
G01X11617960Y10457180D03*
G01X11617960Y10558780D03*
G54D20*
G01X12240720Y11452700D03*
G01X12290720Y11452700D03*
G01X12340720Y11452700D03*
G01X12390720Y11452700D03*
G01X12440720Y11452700D03*
G01X12490720Y11452700D03*
G01X12540720Y11452700D03*
G01X12590720Y11452700D03*
G01X12640720Y11452700D03*
G01X12690720Y11452700D03*
G01X12740720Y11452700D03*
G01X12790720Y11452700D03*
G54D21*
G01X12925720Y11317700D03*
G01X12925720Y11267700D03*
G01X12925720Y11217700D03*
G01X12925720Y11167700D03*
G01X12925720Y11117700D03*
G01X12925720Y11067700D03*
G01X12925720Y11017700D03*
G01X12925720Y10967700D03*
G01X12925720Y10917700D03*
G01X12925720Y10867700D03*
G01X12925720Y10817700D03*
G01X12925720Y10767700D03*
G54D20*
G01X12790720Y10632700D03*
G01X12740720Y10632700D03*
G01X12690720Y10632700D03*
G01X12640720Y10632700D03*
G01X12590720Y10632700D03*
G01X12540720Y10632700D03*
G01X12490720Y10632700D03*
G01X12440720Y10632700D03*
G01X12390720Y10632700D03*
G01X12340720Y10632700D03*
G01X12290720Y10632700D03*
G01X12240720Y10632700D03*
G54D21*
G01X12105720Y10767700D03*
G01X12105720Y10817700D03*
G01X12105720Y10867700D03*
G01X12105720Y10917700D03*
G01X12105720Y10967700D03*
G01X12105720Y11017700D03*
G01X12105720Y11067700D03*
G01X12105720Y11117700D03*
G01X12105720Y11167700D03*
G01X12105720Y11217700D03*
G01X12105720Y11267700D03*
G01X12105720Y11317700D03*
G54D22*
G01X13762040Y10601720D03*
G01X13762040Y10536720D03*
G01X13762040Y10471720D03*
G01X13762040Y10406720D03*
G01X13342040Y10601720D03*
G01X13342040Y10536720D03*
G01X13342040Y10471720D03*
G01X13342040Y10406720D03*
G54D13*
G01X11286360Y11972340D03*
G01X11286360Y12073940D03*
G54D23*
G01X11264120Y11821660D03*
G01X11484120Y11821660D03*
G01X11264120Y11440660D03*
G01X11484120Y11440660D03*
G54D15*
G01X12066140Y11614200D03*
G01X11964540Y11614200D03*
G54D24*
G01X10644600Y10460520D03*
G01X10644600Y10560520D03*
G01X10644600Y10510520D03*
G01X10894600Y10510520D03*
G01X10894600Y10560520D03*
G01X10894600Y10460520D03*
G54D25*
G01X10769600Y10635520D03*
G01X10769600Y10385520D03*
G01X10819600Y10635520D03*
G01X10719600Y10635520D03*
G01X10819600Y10385520D03*
G01X10719600Y10385520D03*
G54D26*
G01X10914600Y10610520D03*
G01X10914600Y10410520D03*
G01X10869600Y10655520D03*
G01X10869600Y10365520D03*
G01X10669600Y10365520D03*
G01X10624600Y10410520D03*
G01X10624600Y10610520D03*
G01X10669600Y10655520D03*
G54D27*
G01X10507980Y11099800D03*
G54D28*
G01X10507980Y10845800D03*
G01X10253980Y11099800D03*
G01X10253980Y10845800D03*
G01X10459720Y12138660D03*
G01X10459720Y11884660D03*
G01X10459720Y11630660D03*
G54D29*
G01X10459720Y11376660D03*
G54D28*
G01X11386820Y10302240D03*
G54D30*
G01X11386820Y10556240D03*
G54D28*
G01X14160500Y10596880D03*
G54D29*
G01X14160500Y10342880D03*
G04 Pad End*

G04 Via Start*
G54D31*
G01X11112500Y10269220D03*
G01X11013440Y10271760D03*
G01X10916920Y10269220D03*
G01X10685780Y10241280D03*
G01X10792460Y10241300D03*
G01X11064240Y10574020D03*
G01X10769600Y10515600D03*
G01X14523720Y10911840D03*
G01X13760460Y11733580D03*
G01X13640974Y11733686D03*
G01X11887390Y11334404D03*
G01X14861540Y10568940D03*
G01X14163040Y10800080D03*
G01X14150340Y10934700D03*
G01X11529060Y10398760D03*
G01X11181080Y10688320D03*
G01X11581000Y11944400D03*
G01X11581000Y12035840D03*
G01X11192380Y11974880D03*
G01X13624560Y10210800D03*
G01X13520420Y10213340D03*
G01X12688440Y10242600D03*
G01X12810360Y10242600D03*
G01X11591160Y10760760D03*
G01X12398880Y11804700D03*
G01X13735060Y11906300D03*
G01X13636000Y11906300D03*
G01X13150720Y10250220D03*
G01X12734160Y11065560D03*
G01X12746860Y10918240D03*
G01X13929360Y10337800D03*
G01X11995020Y11952020D03*
G01X12149960Y11819940D03*
G01X13318360Y11271300D03*
G01X12274420Y11141760D03*
G01X12477620Y11162080D03*
G01X12751940Y11276380D03*
G01X12736700Y11184940D03*
G01X13813660Y10201960D03*
G01X13140560Y10552480D03*
G01X12602080Y10242600D03*
G01X12965300Y10407700D03*
G01X12383640Y10242600D03*
G01X12149960Y11436400D03*
G01X13554580Y11362740D03*
G01X12515720Y10242600D03*
G01X12216000Y10242600D03*
G01X12132180Y10242600D03*
G01X12299820Y10242600D03*
G01X11578460Y10849660D03*
G01X13132940Y10156240D03*
G01X12337920Y11068100D03*
G01X12467460Y11289080D03*
G01X12962760Y11416080D03*
G01X11967080Y11687860D03*
G01X12315060Y10966500D03*
G01X13292960Y10920780D03*
G01X12040740Y10303560D03*
G01X12927200Y10689640D03*
G01X11743560Y11995200D03*
G01X11888340Y11957100D03*
G01X11987400Y11842800D03*
G01X12604620Y11756440D03*
G01X14747240Y11991340D03*
G01X11176000Y10784840D03*
G01X14008100Y10703560D03*
G04 Via End*

M02*

