G04 Layer: DrillDrawingLayer*
G04 EasyEDA Pro v2.2.35.2, 2025-02-24 01:09:24*
G04 Gerber Generator version 0.3*
G04 Scale: 100 percent, Rotated: No, Reflected: No*
G04 Dimensions in millimeters*
G04 Leading zeros omitted, absolute positions, 4 integers and 5 decimals*
%FSLAX45Y45*%
%MOMM*%
%AMIconRect*4,1,4,0.2,-0.2,-0.2,-0.2,-0.2,0.2,0.2,0.2,0.2,-0.2,0*4,0,4,0.166667,-0.166667,0.166667,0.166667,-0.166667,0.166667,-0.166667,-0.166667,0.166667,-0.166667,0*%
%AMIconTriangle*4,1,3,-0.242567,0.171767,0.242567,0.171767,0,-0.2706,-0.242567,0.171767,0*4,0,3,-0.189767,0.1386,0,-0.1953,0.190167,0.1386,-0.189767,0.1386,0*%
%AMIconStar6*4,1,12,0.0862,0.1492,0.213233,0.123367,0.172367,0,0.213233,-0.1229,0.0862,-0.148733,0,-0.245767,-0.085767,-0.148733,-0.213267,-0.1229,-0.171933,0,-0.213267,0.1229,-0.085767,0.1492,0,0.245767,0.0862,0.1492,0*4,0,12,-0.000333,0.195333,-0.064333,0.122667,-0.169667,0.097667,-0.138333,-0.005333,-0.169667,-0.098,-0.064333,-0.122667,-0.000333,-0.195667,0.064333,-0.122667,0.169667,-0.098,0.138667,0.005,0.169667,0.098,0.064333,0.122333,-0.000333,0.195333,0*%
%AMIconStar4*4,1,8,-0.222667,0.222667,0,0.144667,0.222667,0.222667,0.144667,0,0.222667,-0.222667,0,-0.144667,-0.217433,-0.222667,-0.144667,0,-0.222667,0.222667,0*4,0,8,0.166667,-0.166667,0.108,0,0.166667,0.166667,0,0.108,-0.166667,0.166667,-0.108,0,-0.166667,-0.166667,0,-0.108,0.166667,-0.166667,0*%
%AMIconPlus*4,1,12,0.124,-0.2,-0.124,-0.2,-0.124,-0.124,-0.2,-0.124,-0.2,0.124,-0.124,0.124,-0.124,0.2,0.124,0.2,0.124,0.124,0.2,0.124,0.2,-0.124,0.124,-0.124,0.124,-0.2,0*4,0,12,0.090667,-0.166667,0.090667,-0.090667,0.166667,-0.090667,0.166667,0.090667,0.090667,0.090667,0.090667,0.166667,-0.090667,0.166667,-0.090667,0.090667,-0.166667,0.090667,-0.166667,-0.090667,-0.090667,-0.090667,-0.090667,-0.166667,0.090667,-0.166667,0*%
%ADD10IconRect*%
%ADD11C,0.44X0.373333*%
%ADD12IconTriangle*%
%ADD13IconStar6*%
%ADD14IconStar4*%
%ADD15IconPlus*%
G75*


G04 Drill Drawing Start*
G54D10*
G01X14300000Y11657400D03*
G01X15000000Y11657400D03*
G54D11*
G01X11463600Y11100000D03*
G01X13663600Y11100000D03*
G54D12*
G01X10313600Y10300000D03*
G01X10860200Y11030900D03*
G01X14430000Y10300000D03*
G01X14430000Y12150000D03*
G54D13*
G01X14694800Y10365300D03*
G01X14694800Y11095300D03*
G01X14984800Y10365300D03*
G01X14984800Y11095300D03*
G54D14*
G01X10253980Y10845800D03*
G01X10253980Y11099800D03*
G01X10459720Y11884660D03*
G01X10459720Y12138660D03*
G01X10459720Y11376660D03*
G01X10459720Y11630660D03*
G01X10507980Y10845800D03*
G01X10507980Y11099800D03*
G01X11386820Y10302240D03*
G01X11386820Y10556240D03*
G01X14160500Y10342880D03*
G01X14160500Y10596880D03*
G54D15*
G01X10685780Y10241280D03*
G01X10769600Y10515600D03*
G01X10792460Y10241300D03*
G01X10916920Y10269220D03*
G01X11013440Y10271760D03*
G01X11064240Y10574020D03*
G01X11112500Y10269220D03*
G01X11176000Y10784840D03*
G01X11181080Y10688320D03*
G01X11192380Y11974880D03*
G01X11529060Y10398760D03*
G01X11578460Y10849660D03*
G01X11581000Y11944400D03*
G01X11581000Y12035840D03*
G01X11591160Y10760760D03*
G01X11743560Y11995200D03*
G01X11887390Y11334404D03*
G01X11888340Y11957100D03*
G01X11967080Y11687860D03*
G01X11987400Y11842800D03*
G01X11995020Y11952020D03*
G01X12040740Y10303560D03*
G01X12132180Y10242600D03*
G01X12149960Y11436400D03*
G01X12149960Y11819940D03*
G01X12216000Y10242600D03*
G01X12274420Y11141760D03*
G01X12299820Y10242600D03*
G01X12315060Y10966500D03*
G01X12337920Y11068100D03*
G01X12383640Y10242600D03*
G01X12398880Y11804700D03*
G01X12467460Y11289080D03*
G01X12477620Y11162080D03*
G01X12515720Y10242600D03*
G01X12602080Y10242600D03*
G01X12604620Y11756440D03*
G01X12688440Y10242600D03*
G01X12734160Y11065560D03*
G01X12736700Y11184940D03*
G01X12746860Y10918240D03*
G01X12751940Y11276380D03*
G01X12810360Y10242600D03*
G01X12927200Y10689640D03*
G01X12962760Y11416080D03*
G01X12965300Y10407700D03*
G01X13132940Y10156240D03*
G01X13140560Y10552480D03*
G01X13150720Y10250220D03*
G01X13292960Y10920780D03*
G01X13318360Y11271300D03*
G01X13520420Y10213340D03*
G01X13554580Y11362740D03*
G01X13624560Y10210800D03*
G01X13636000Y11906300D03*
G01X13640974Y11733686D03*
G01X13735060Y11906300D03*
G01X13760460Y11733580D03*
G01X13813660Y10201960D03*
G01X13929360Y10337800D03*
G01X14008100Y10703560D03*
G01X14150340Y10934700D03*
G01X14163040Y10800080D03*
G01X14523720Y10911840D03*
G01X14747240Y11991340D03*
G01X14861540Y10568940D03*
G04 Drill Drawing End*

M02*

