G04 Layer: BottomPasteMaskLayer*
G04 EasyEDA Pro v2.2.35.2, 2025-02-24 01:09:24*
G04 Gerber Generator version 0.3*
G04 Scale: 100 percent, Rotated: No, Reflected: No*
G04 Dimensions in millimeters*
G04 Leading zeros omitted, absolute positions, 4 integers and 5 decimals*
%FSLAX45Y45*%
%MOMM*%
%AMRoundRect*1,1,$1,$2,$3*1,1,$1,$4,$5*1,1,$1,0-$2,0-$3*1,1,$1,0-$4,0-$5*20,1,$1,$2,$3,$4,$5,0*20,1,$1,$4,$5,0-$2,0-$3,0*20,1,$1,0-$2,0-$3,0-$4,0-$5,0*20,1,$1,0-$4,0-$5,$2,$3,0*4,1,4,$2,$3,$4,$5,0-$2,0-$3,0-$4,0-$5,$2,$3,0*%
%ADD10C,1.2192*%
%ADD11RoundRect,0.15076X0.21672X-0.28022X-0.21672X-0.28022*%
%ADD12RoundRect,0.15076X-0.28022X-0.21672X-0.28022X0.21672*%
%ADD13RoundRect,0.16355X0.33732X-0.40082X-0.33732X-0.40082*%
%ADD14RoundRect,0.15076X-0.21672X0.28022X0.21672X0.28022*%
%ADD15RoundRect,0.15076X0.28022X0.21672X0.28022X-0.21672*%
%ADD16O,0.3X2.1*%
%ADD17O,2.1X0.3*%
%ADD18O,1.7X0.375*%
%ADD19R,1.5X1.2*%
%ADD20RoundRect,0.14475X-0.37923X-0.17923X-0.37923X0.17923*%
%ADD21RoundRect,0.14475X-0.17923X-0.37923X-0.17923X0.37923*%
%ADD22RoundRect,0.14475X-0.17923X-0.17923X-0.17923X0.17923*%
G75*


G04 Pad Start*
G54D10*
G01X14960600Y10764520D03*
G01X13319760Y11501120D03*
G01X13936980Y10205720D03*
G54D11*
G01X10683240Y10132060D03*
G01X10784840Y10132060D03*
G54D12*
G01X11831320Y11557000D03*
G01X11831320Y11455400D03*
G54D13*
G01X14630400Y10568940D03*
G01X14757400Y10568940D03*
G54D14*
G01X14958060Y10568940D03*
G01X15059660Y10568940D03*
G54D11*
G01X13737600Y11819940D03*
G01X13636000Y11819940D03*
G54D14*
G01X12045820Y11695480D03*
G01X12147420Y11695480D03*
G01X13111480Y10962640D03*
G01X13213080Y10962640D03*
G01X13111480Y11046460D03*
G01X13213080Y11046460D03*
G54D12*
G01X13901420Y10703560D03*
G01X13901420Y10601960D03*
G54D15*
G01X13906500Y10431780D03*
G01X13906500Y10533380D03*
G54D12*
G01X12066140Y11372900D03*
G01X12066140Y11474500D03*
G54D15*
G01X13285340Y11179860D03*
G01X13285340Y11078260D03*
G01X13366620Y11179860D03*
G01X13366620Y11078260D03*
G54D13*
G01X13318360Y11362740D03*
G01X13445360Y11362740D03*
G54D15*
G01X12881480Y11596420D03*
G01X12881480Y11494820D03*
G01X12975460Y11596420D03*
G01X12975460Y11494820D03*
G01X12673200Y10415320D03*
G01X12673200Y10313720D03*
G54D11*
G01X12231240Y11619280D03*
G01X12129640Y11619280D03*
G54D14*
G01X12693520Y11652300D03*
G01X12591920Y11652300D03*
G54D11*
G01X11374120Y12059920D03*
G01X11475720Y12059920D03*
G01X12068680Y11535460D03*
G01X11967080Y11535460D03*
G54D14*
G01X11375260Y11977420D03*
G01X11476860Y11977420D03*
G01X10675620Y10840720D03*
G01X10777220Y10840720D03*
G54D12*
G01X10881360Y10713720D03*
G01X10881360Y10815320D03*
G01X11005820Y10668000D03*
G01X11005820Y10769600D03*
G01X11084560Y10668000D03*
G01X11084560Y10769600D03*
G54D11*
G01X13622020Y10289540D03*
G01X13520420Y10289540D03*
G54D12*
G01X11617960Y10401300D03*
G01X11617960Y10299700D03*
G54D15*
G01X11617960Y10457180D03*
G01X11617960Y10558780D03*
G54D16*
G01X12240720Y11452700D03*
G01X12290720Y11452700D03*
G01X12340720Y11452700D03*
G01X12390720Y11452700D03*
G01X12440720Y11452700D03*
G01X12490720Y11452700D03*
G01X12540720Y11452700D03*
G01X12590720Y11452700D03*
G01X12640720Y11452700D03*
G01X12690720Y11452700D03*
G01X12740720Y11452700D03*
G01X12790720Y11452700D03*
G54D17*
G01X12925720Y11317700D03*
G01X12925720Y11267700D03*
G01X12925720Y11217700D03*
G01X12925720Y11167700D03*
G01X12925720Y11117700D03*
G01X12925720Y11067700D03*
G01X12925720Y11017700D03*
G01X12925720Y10967700D03*
G01X12925720Y10917700D03*
G01X12925720Y10867700D03*
G01X12925720Y10817700D03*
G01X12925720Y10767700D03*
G54D16*
G01X12790720Y10632700D03*
G01X12740720Y10632700D03*
G01X12690720Y10632700D03*
G01X12640720Y10632700D03*
G01X12590720Y10632700D03*
G01X12540720Y10632700D03*
G01X12490720Y10632700D03*
G01X12440720Y10632700D03*
G01X12390720Y10632700D03*
G01X12340720Y10632700D03*
G01X12290720Y10632700D03*
G01X12240720Y10632700D03*
G54D17*
G01X12105720Y10767700D03*
G01X12105720Y10817700D03*
G01X12105720Y10867700D03*
G01X12105720Y10917700D03*
G01X12105720Y10967700D03*
G01X12105720Y11017700D03*
G01X12105720Y11067700D03*
G01X12105720Y11117700D03*
G01X12105720Y11167700D03*
G01X12105720Y11217700D03*
G01X12105720Y11267700D03*
G01X12105720Y11317700D03*
G54D18*
G01X13762040Y10601720D03*
G01X13762040Y10536720D03*
G01X13762040Y10471720D03*
G01X13762040Y10406720D03*
G01X13342040Y10601720D03*
G01X13342040Y10536720D03*
G01X13342040Y10471720D03*
G01X13342040Y10406720D03*
G54D12*
G01X11286360Y11972340D03*
G01X11286360Y12073940D03*
G54D19*
G01X11264120Y11821660D03*
G01X11484120Y11821660D03*
G01X11264120Y11440660D03*
G01X11484120Y11440660D03*
G54D14*
G01X12066140Y11614200D03*
G01X11964540Y11614200D03*
G54D20*
G01X10644600Y10460520D03*
G01X10644600Y10560520D03*
G01X10644600Y10510520D03*
G01X10894600Y10510520D03*
G01X10894600Y10560520D03*
G01X10894600Y10460520D03*
G54D21*
G01X10769600Y10635520D03*
G01X10769600Y10385520D03*
G01X10819600Y10635520D03*
G01X10719600Y10635520D03*
G01X10819600Y10385520D03*
G01X10719600Y10385520D03*
G54D22*
G01X10914600Y10610520D03*
G01X10914600Y10410520D03*
G01X10869600Y10655520D03*
G01X10869600Y10365520D03*
G01X10669600Y10365520D03*
G01X10624600Y10410520D03*
G01X10624600Y10610520D03*
G01X10669600Y10655520D03*
G04 Pad End*

M02*

