G04 Layer: BottomSilkscreenLayer*
G04 EasyEDA Pro v2.2.35.2, 2025-02-24 01:09:24*
G04 Gerber Generator version 0.3*
G04 Scale: 100 percent, Rotated: No, Reflected: No*
G04 Dimensions in millimeters*
G04 Leading zeros omitted, absolute positions, 4 integers and 5 decimals*
%FSLAX45Y45*%
%MOMM*%
%ADD10C,0.1016*%
%ADD11C,0.2*%
%ADD12C,0.25*%
%ADD13C,0.6*%
G75*


G04 Text Start*
G54D10*
G01X15012162Y10838180D02*
G01X15012162Y10888980D01*
G01X15029180Y10888980D02*
G01X14995398Y10888980D01*
G01X14978380Y10855198D02*
G01X14952980Y10855198D01*
G01X14952980Y10855198D02*
G01X14944598Y10863580D01*
G01X14944598Y10863580D02*
G01X14944598Y10880598D01*
G01X14952980Y10888980D02*
G01X14944598Y10880598D01*
G01X14978380Y10888980D02*
G01X14952980Y10888980D01*
G01X14978380Y10838180D02*
G01X14978380Y10855198D01*
G01X14978380Y10855198D02*
G01X14978380Y10888980D01*
G01X14910816Y10863580D02*
G01X14902180Y10863580D01*
G01X14927580Y10846562D02*
G01X14919198Y10838180D01*
G01X14919198Y10838180D02*
G01X14902180Y10838180D01*
G01X14902180Y10838180D02*
G01X14893798Y10846562D01*
G01X14893798Y10846562D02*
G01X14893798Y10855198D01*
G01X14902180Y10863580D02*
G01X14893798Y10855198D01*
G01X14902180Y10863580D02*
G01X14893798Y10871962D01*
G01X14893798Y10871962D02*
G01X14893798Y10880598D01*
G01X14902180Y10888980D02*
G01X14893798Y10880598D01*
G01X14919198Y10888980D02*
G01X14902180Y10888980D01*
G01X14927580Y10880598D02*
G01X14919198Y10888980D01*
G01X13368782Y11577320D02*
G01X13368782Y11628120D01*
G01X13385800Y11628120D02*
G01X13352018Y11628120D01*
G01X13335000Y11594338D02*
G01X13309600Y11594338D01*
G01X13309600Y11594338D02*
G01X13301218Y11602720D01*
G01X13301218Y11602720D02*
G01X13301218Y11619738D01*
G01X13309600Y11628120D02*
G01X13301218Y11619738D01*
G01X13335000Y11628120D02*
G01X13309600Y11628120D01*
G01X13335000Y11577320D02*
G01X13335000Y11594338D01*
G01X13335000Y11594338D02*
G01X13335000Y11628120D01*
G01X13284200Y11577320D02*
G01X13250418Y11577320D01*
G01X13284200Y11577320D02*
G01X13250418Y11611102D01*
G01X13250418Y11611102D02*
G01X13250418Y11619738D01*
G01X13258800Y11628120D02*
G01X13250418Y11619738D01*
G01X13275818Y11628120D02*
G01X13258800Y11628120D01*
G01X13284200Y11619738D02*
G01X13275818Y11628120D01*
G01X13980922Y10076180D02*
G01X13980922Y10126980D01*
G01X13997940Y10126980D02*
G01X13964158Y10126980D01*
G01X13947140Y10093198D02*
G01X13921740Y10093198D01*
G01X13921740Y10093198D02*
G01X13913358Y10101580D01*
G01X13913358Y10101580D02*
G01X13913358Y10118598D01*
G01X13921740Y10126980D02*
G01X13913358Y10118598D01*
G01X13947140Y10126980D02*
G01X13921740Y10126980D01*
G01X13947140Y10076180D02*
G01X13947140Y10093198D01*
G01X13947140Y10093198D02*
G01X13947140Y10126980D01*
G01X13887958Y10076180D02*
G01X13887958Y10126980D01*
G01X13896340Y10118598D02*
G01X13887958Y10126980D01*
G01X13896340Y10076180D02*
G01X13887958Y10076180D01*
G01X13887958Y10076180D02*
G01X13879576Y10076180D01*
G01X10612882Y10126218D02*
G01X10596118Y10109200D01*
G01X10604500Y10126218D02*
G01X10596118Y10134600D01*
G01X10596118Y10134600D02*
G01X10596118Y10151618D01*
G01X10604500Y10160000D02*
G01X10596118Y10151618D01*
G01X10629900Y10160000D02*
G01X10604500Y10160000D01*
G01X10629900Y10109200D02*
G01X10629900Y10126218D01*
G01X10629900Y10126218D02*
G01X10629900Y10160000D01*
G01X10629900Y10126218D02*
G01X10612882Y10126218D01*
G01X10612882Y10126218D02*
G01X10604500Y10126218D01*
G01X10570718Y10109200D02*
G01X10570718Y10160000D01*
G01X10579100Y10151618D02*
G01X10570718Y10160000D01*
G01X10579100Y10109200D02*
G01X10570718Y10109200D01*
G01X10570718Y10109200D02*
G01X10562336Y10109200D01*
G01X10511536Y10134600D02*
G01X10503154Y10126218D01*
G01X10503154Y10117582D02*
G01X10503154Y10126218D01*
G01X10511536Y10109200D02*
G01X10503154Y10117582D01*
G01X10528554Y10109200D02*
G01X10511536Y10109200D01*
G01X10536936Y10117582D02*
G01X10528554Y10109200D01*
G01X10536936Y10117582D02*
G01X10536936Y10126218D01*
G01X10536936Y10126218D02*
G01X10528554Y10134600D01*
G01X10536936Y10151618D02*
G01X10528554Y10160000D01*
G01X10536936Y10142982D02*
G01X10536936Y10151618D01*
G01X10536936Y10142982D02*
G01X10528554Y10134600D01*
G01X10528554Y10134600D02*
G01X10511536Y10134600D01*
G01X10511536Y10134600D02*
G01X10503154Y10142982D01*
G01X10503154Y10142982D02*
G01X10503154Y10151618D01*
G01X10511536Y10160000D02*
G01X10503154Y10151618D01*
G01X10528554Y10160000D02*
G01X10511536Y10160000D01*
G01X11754358Y11452098D02*
G01X11737340Y11468862D01*
G01X11754358Y11460480D02*
G01X11762740Y11468862D01*
G01X11762740Y11468862D02*
G01X11779758Y11468862D01*
G01X11788140Y11460480D02*
G01X11779758Y11468862D01*
G01X11788140Y11435080D02*
G01X11788140Y11460480D01*
G01X11737340Y11435080D02*
G01X11754358Y11435080D01*
G01X11754358Y11435080D02*
G01X11788140Y11435080D01*
G01X11754358Y11435080D02*
G01X11754358Y11452098D01*
G01X11754358Y11452098D02*
G01X11754358Y11460480D01*
G01X11737340Y11494262D02*
G01X11788140Y11494262D01*
G01X11779758Y11485880D02*
G01X11788140Y11494262D01*
G01X11737340Y11485880D02*
G01X11737340Y11494262D01*
G01X11737340Y11494262D02*
G01X11737340Y11502644D01*
G01X11762740Y11528044D02*
G01X11762740Y11553444D01*
G01X11762740Y11553444D02*
G01X11754358Y11561826D01*
G01X11745722Y11561826D02*
G01X11754358Y11561826D01*
G01X11737340Y11553444D02*
G01X11745722Y11561826D01*
G01X11737340Y11536426D02*
G01X11737340Y11553444D01*
G01X11745722Y11528044D02*
G01X11737340Y11536426D01*
G01X11745722Y11528044D02*
G01X11762740Y11528044D01*
G01X11762740Y11528044D02*
G01X11779758Y11545062D01*
G01X11788140Y11561826D02*
G01X11779758Y11545062D01*
G01X14719300Y10634980D02*
G01X14685518Y10634980D01*
G01X14719300Y10634980D02*
G01X14719300Y10685780D01*
G01X14660118Y10634980D02*
G01X14660118Y10685780D01*
G01X14668500Y10677398D02*
G01X14660118Y10685780D01*
G01X14668500Y10634980D02*
G01X14660118Y10634980D01*
G01X14660118Y10634980D02*
G01X14651736Y10634980D01*
G01X15036800Y10614660D02*
G01X15028418Y10623042D01*
G01X15053818Y10614660D02*
G01X15036800Y10614660D01*
G01X15062200Y10623042D02*
G01X15053818Y10614660D01*
G01X15062200Y10623042D02*
G01X15062200Y10657078D01*
G01X15062200Y10657078D02*
G01X15053818Y10665460D01*
G01X15053818Y10665460D02*
G01X15036800Y10665460D01*
G01X15036800Y10665460D02*
G01X15028418Y10657078D01*
G01X15003018Y10614660D02*
G01X15003018Y10665460D01*
G01X15011400Y10657078D02*
G01X15003018Y10665460D01*
G01X15011400Y10614660D02*
G01X15003018Y10614660D01*
G01X15003018Y10614660D02*
G01X14994636Y10614660D01*
G01X14960854Y10614660D02*
G01X14960854Y10665460D01*
G01X14969236Y10657078D02*
G01X14960854Y10665460D01*
G01X14969236Y10614660D02*
G01X14960854Y10614660D01*
G01X14960854Y10614660D02*
G01X14952218Y10614660D01*
G01X13867140Y11794540D02*
G01X13858758Y11802922D01*
G01X13884158Y11794540D02*
G01X13867140Y11794540D01*
G01X13892540Y11802922D02*
G01X13884158Y11794540D01*
G01X13892540Y11802922D02*
G01X13892540Y11836958D01*
G01X13892540Y11836958D02*
G01X13884158Y11845340D01*
G01X13884158Y11845340D02*
G01X13867140Y11845340D01*
G01X13867140Y11845340D02*
G01X13858758Y11836958D01*
G01X13824976Y11819940D02*
G01X13816340Y11819940D01*
G01X13841740Y11802922D02*
G01X13833358Y11794540D01*
G01X13833358Y11794540D02*
G01X13816340Y11794540D01*
G01X13816340Y11794540D02*
G01X13807958Y11802922D01*
G01X13807958Y11802922D02*
G01X13807958Y11811558D01*
G01X13816340Y11819940D02*
G01X13807958Y11811558D01*
G01X13816340Y11819940D02*
G01X13807958Y11828322D01*
G01X13807958Y11828322D02*
G01X13807958Y11836958D01*
G01X13816340Y11845340D02*
G01X13807958Y11836958D01*
G01X13833358Y11845340D02*
G01X13816340Y11845340D01*
G01X13841740Y11836958D02*
G01X13833358Y11845340D01*
G01X13782558Y11794540D02*
G01X13782558Y11845340D01*
G01X13790940Y11836958D02*
G01X13782558Y11845340D01*
G01X13790940Y11794540D02*
G01X13782558Y11794540D01*
G01X13782558Y11794540D02*
G01X13774176Y11794540D01*
G01X12299820Y11675160D02*
G01X12291438Y11683542D01*
G01X12316838Y11675160D02*
G01X12299820Y11675160D01*
G01X12325220Y11683542D02*
G01X12316838Y11675160D01*
G01X12325220Y11683542D02*
G01X12325220Y11717578D01*
G01X12325220Y11717578D02*
G01X12316838Y11725960D01*
G01X12316838Y11725960D02*
G01X12299820Y11725960D01*
G01X12299820Y11725960D02*
G01X12291438Y11717578D01*
G01X12274420Y11675160D02*
G01X12240638Y11675160D01*
G01X12274420Y11675160D02*
G01X12240638Y11708942D01*
G01X12240638Y11708942D02*
G01X12240638Y11717578D01*
G01X12249020Y11725960D02*
G01X12240638Y11717578D01*
G01X12266038Y11725960D02*
G01X12249020Y11725960D01*
G01X12274420Y11717578D02*
G01X12266038Y11725960D01*
G01X12223620Y11683542D02*
G01X12215238Y11675160D01*
G01X12215238Y11675160D02*
G01X12198220Y11675160D01*
G01X12198220Y11675160D02*
G01X12189838Y11683542D01*
G01X12198220Y11725960D02*
G01X12189838Y11717578D01*
G01X12215238Y11725960D02*
G01X12198220Y11725960D01*
G01X12223620Y11717578D02*
G01X12215238Y11725960D01*
G01X12223620Y11708942D02*
G01X12223620Y11717578D01*
G01X12223620Y11708942D02*
G01X12215238Y11700560D01*
G01X12215238Y11700560D02*
G01X12189838Y11700560D01*
G01X12189838Y11683542D02*
G01X12189838Y11700560D01*
G01X12189838Y11700560D02*
G01X12189838Y11717578D01*
G01X13200380Y10866380D02*
G01X13191998Y10874762D01*
G01X13217398Y10866380D02*
G01X13200380Y10866380D01*
G01X13225780Y10874762D02*
G01X13217398Y10866380D01*
G01X13225780Y10874762D02*
G01X13225780Y10908798D01*
G01X13225780Y10908798D02*
G01X13217398Y10917180D01*
G01X13217398Y10917180D02*
G01X13200380Y10917180D01*
G01X13200380Y10917180D02*
G01X13191998Y10908798D01*
G01X13174980Y10866380D02*
G01X13141198Y10866380D01*
G01X13174980Y10866380D02*
G01X13141198Y10900162D01*
G01X13141198Y10900162D02*
G01X13141198Y10908798D01*
G01X13149580Y10917180D02*
G01X13141198Y10908798D01*
G01X13166598Y10917180D02*
G01X13149580Y10917180D01*
G01X13174980Y10908798D02*
G01X13166598Y10917180D01*
G01X13098780Y10891780D02*
G01X13090398Y10883398D01*
G01X13090398Y10874762D02*
G01X13090398Y10883398D01*
G01X13098780Y10866380D02*
G01X13090398Y10874762D01*
G01X13115798Y10866380D02*
G01X13098780Y10866380D01*
G01X13124180Y10874762D02*
G01X13115798Y10866380D01*
G01X13124180Y10874762D02*
G01X13124180Y10883398D01*
G01X13124180Y10883398D02*
G01X13115798Y10891780D01*
G01X13124180Y10908798D02*
G01X13115798Y10917180D01*
G01X13124180Y10900162D02*
G01X13124180Y10908798D01*
G01X13124180Y10900162D02*
G01X13115798Y10891780D01*
G01X13115798Y10891780D02*
G01X13098780Y10891780D01*
G01X13098780Y10891780D02*
G01X13090398Y10900162D01*
G01X13090398Y10900162D02*
G01X13090398Y10908798D01*
G01X13098780Y10917180D02*
G01X13090398Y10908798D01*
G01X13115798Y10917180D02*
G01X13098780Y10917180D01*
G01X13197840Y11097260D02*
G01X13189458Y11105642D01*
G01X13214858Y11097260D02*
G01X13197840Y11097260D01*
G01X13223240Y11105642D02*
G01X13214858Y11097260D01*
G01X13223240Y11105642D02*
G01X13223240Y11139678D01*
G01X13223240Y11139678D02*
G01X13214858Y11148060D01*
G01X13214858Y11148060D02*
G01X13197840Y11148060D01*
G01X13197840Y11148060D02*
G01X13189458Y11139678D01*
G01X13172440Y11097260D02*
G01X13138658Y11097260D01*
G01X13172440Y11097260D02*
G01X13138658Y11131042D01*
G01X13138658Y11131042D02*
G01X13138658Y11139678D01*
G01X13147040Y11148060D02*
G01X13138658Y11139678D01*
G01X13164058Y11148060D02*
G01X13147040Y11148060D01*
G01X13172440Y11139678D02*
G01X13164058Y11148060D01*
G01X13121640Y11097260D02*
G01X13121640Y11105642D01*
G01X13121640Y11105642D02*
G01X13087858Y11139678D01*
G01X13087858Y11139678D02*
G01X13087858Y11148060D01*
G01X13121640Y11148060D02*
G01X13087858Y11148060D01*
G01X13895578Y10763758D02*
G01X13878560Y10780522D01*
G01X13895578Y10772140D02*
G01X13903960Y10780522D01*
G01X13903960Y10780522D02*
G01X13920978Y10780522D01*
G01X13929360Y10772140D02*
G01X13920978Y10780522D01*
G01X13929360Y10746740D02*
G01X13929360Y10772140D01*
G01X13878560Y10746740D02*
G01X13895578Y10746740D01*
G01X13895578Y10746740D02*
G01X13929360Y10746740D01*
G01X13895578Y10746740D02*
G01X13895578Y10763758D01*
G01X13895578Y10763758D02*
G01X13895578Y10772140D01*
G01X13878560Y10805922D02*
G01X13929360Y10805922D01*
G01X13920978Y10797540D02*
G01X13929360Y10805922D01*
G01X13878560Y10797540D02*
G01X13878560Y10805922D01*
G01X13878560Y10805922D02*
G01X13878560Y10814304D01*
G01X13886942Y10839704D02*
G01X13878560Y10848086D01*
G01X13878560Y10848086D02*
G01X13878560Y10865104D01*
G01X13878560Y10865104D02*
G01X13886942Y10873486D01*
G01X13886942Y10873486D02*
G01X13903960Y10873486D01*
G01X13912342Y10865104D02*
G01X13903960Y10873486D01*
G01X13912342Y10856722D02*
G01X13912342Y10865104D01*
G01X13903960Y10839704D02*
G01X13929360Y10839704D01*
G01X13929360Y10839704D02*
G01X13929360Y10873486D01*
G01X13903960Y10839704D02*
G01X13912342Y10856722D01*
G01X13969238Y10441178D02*
G01X13952220Y10457942D01*
G01X13969238Y10449560D02*
G01X13977620Y10457942D01*
G01X13977620Y10457942D02*
G01X13994638Y10457942D01*
G01X14003020Y10449560D02*
G01X13994638Y10457942D01*
G01X14003020Y10424160D02*
G01X14003020Y10449560D01*
G01X13952220Y10424160D02*
G01X13969238Y10424160D01*
G01X13969238Y10424160D02*
G01X14003020Y10424160D01*
G01X13969238Y10424160D02*
G01X13969238Y10441178D01*
G01X13969238Y10441178D02*
G01X13969238Y10449560D01*
G01X13952220Y10483342D02*
G01X14003020Y10483342D01*
G01X13994638Y10474960D02*
G01X14003020Y10483342D01*
G01X13952220Y10474960D02*
G01X13952220Y10483342D01*
G01X13952220Y10483342D02*
G01X13952220Y10491724D01*
G01X13977620Y10517124D02*
G01X14003020Y10542524D01*
G01X13977620Y10517124D02*
G01X13977620Y10542524D01*
G01X13977620Y10542524D02*
G01X13977620Y10550906D01*
G01X13952220Y10542524D02*
G01X13977620Y10542524D01*
G01X13977620Y10542524D02*
G01X14003020Y10542524D01*
G01X11964540Y11385600D02*
G01X11972922Y11393982D01*
G01X11964540Y11368582D02*
G01X11964540Y11385600D01*
G01X11972922Y11360200D02*
G01X11964540Y11368582D01*
G01X11972922Y11360200D02*
G01X12006958Y11360200D01*
G01X12006958Y11360200D02*
G01X12015340Y11368582D01*
G01X12015340Y11368582D02*
G01X12015340Y11385600D01*
G01X12015340Y11385600D02*
G01X12006958Y11393982D01*
G01X11964540Y11411000D02*
G01X11964540Y11444782D01*
G01X11964540Y11411000D02*
G01X11998322Y11444782D01*
G01X11998322Y11444782D02*
G01X12006958Y11444782D01*
G01X12015340Y11436400D02*
G01X12006958Y11444782D01*
G01X12015340Y11419382D02*
G01X12015340Y11436400D01*
G01X12006958Y11411000D02*
G01X12015340Y11419382D01*
G01X11989940Y11461800D02*
G01X11989940Y11487200D01*
G01X11989940Y11487200D02*
G01X11981558Y11495582D01*
G01X11972922Y11495582D02*
G01X11981558Y11495582D01*
G01X11964540Y11487200D02*
G01X11972922Y11495582D01*
G01X11964540Y11470182D02*
G01X11964540Y11487200D01*
G01X11972922Y11461800D02*
G01X11964540Y11470182D01*
G01X11972922Y11461800D02*
G01X11989940Y11461800D01*
G01X11989940Y11461800D02*
G01X12006958Y11478564D01*
G01X12015340Y11495582D02*
G01X12006958Y11478564D01*
G01X13425040Y11083340D02*
G01X13433422Y11091722D01*
G01X13425040Y11066322D02*
G01X13425040Y11083340D01*
G01X13433422Y11057940D02*
G01X13425040Y11066322D01*
G01X13433422Y11057940D02*
G01X13467458Y11057940D01*
G01X13467458Y11057940D02*
G01X13475840Y11066322D01*
G01X13475840Y11066322D02*
G01X13475840Y11083340D01*
G01X13475840Y11083340D02*
G01X13467458Y11091722D01*
G01X13425040Y11108740D02*
G01X13425040Y11142522D01*
G01X13425040Y11108740D02*
G01X13458822Y11142522D01*
G01X13458822Y11142522D02*
G01X13467458Y11142522D01*
G01X13475840Y11134140D02*
G01X13467458Y11142522D01*
G01X13475840Y11117122D02*
G01X13475840Y11134140D01*
G01X13467458Y11108740D02*
G01X13475840Y11117122D01*
G01X13425040Y11167922D02*
G01X13475840Y11167922D01*
G01X13467458Y11159540D02*
G01X13475840Y11167922D01*
G01X13425040Y11159540D02*
G01X13425040Y11167922D01*
G01X13425040Y11167922D02*
G01X13425040Y11176304D01*
G01X13498700Y11083340D02*
G01X13507082Y11091722D01*
G01X13498700Y11066322D02*
G01X13498700Y11083340D01*
G01X13507082Y11057940D02*
G01X13498700Y11066322D01*
G01X13507082Y11057940D02*
G01X13541118Y11057940D01*
G01X13541118Y11057940D02*
G01X13549500Y11066322D01*
G01X13549500Y11066322D02*
G01X13549500Y11083340D01*
G01X13549500Y11083340D02*
G01X13541118Y11091722D01*
G01X13498700Y11108740D02*
G01X13498700Y11142522D01*
G01X13498700Y11108740D02*
G01X13532482Y11142522D01*
G01X13532482Y11142522D02*
G01X13541118Y11142522D01*
G01X13549500Y11134140D02*
G01X13541118Y11142522D01*
G01X13549500Y11117122D02*
G01X13549500Y11134140D01*
G01X13541118Y11108740D02*
G01X13549500Y11117122D01*
G01X13541118Y11159540D02*
G01X13549500Y11167922D01*
G01X13507082Y11159540D02*
G01X13541118Y11159540D01*
G01X13507082Y11159540D02*
G01X13498700Y11167922D01*
G01X13498700Y11167922D02*
G01X13498700Y11184940D01*
G01X13498700Y11184940D02*
G01X13507082Y11193322D01*
G01X13507082Y11193322D02*
G01X13541118Y11193322D01*
G01X13549500Y11184940D02*
G01X13541118Y11193322D01*
G01X13549500Y11167922D02*
G01X13549500Y11184940D01*
G01X13253720Y11338560D02*
G01X13219938Y11338560D01*
G01X13253720Y11338560D02*
G01X13253720Y11389360D01*
G01X13202920Y11338560D02*
G01X13169138Y11338560D01*
G01X13202920Y11338560D02*
G01X13169138Y11372342D01*
G01X13169138Y11372342D02*
G01X13169138Y11380978D01*
G01X13177520Y11389360D02*
G01X13169138Y11380978D01*
G01X13194538Y11389360D02*
G01X13177520Y11389360D01*
G01X13202920Y11380978D02*
G01X13194538Y11389360D01*
G01X12856080Y11662460D02*
G01X12864462Y11670842D01*
G01X12856080Y11645442D02*
G01X12856080Y11662460D01*
G01X12864462Y11637060D02*
G01X12856080Y11645442D01*
G01X12864462Y11637060D02*
G01X12898498Y11637060D01*
G01X12898498Y11637060D02*
G01X12906880Y11645442D01*
G01X12906880Y11645442D02*
G01X12906880Y11662460D01*
G01X12906880Y11662460D02*
G01X12898498Y11670842D01*
G01X12856080Y11687860D02*
G01X12864462Y11687860D01*
G01X12864462Y11687860D02*
G01X12898498Y11721642D01*
G01X12898498Y11721642D02*
G01X12906880Y11721642D01*
G01X12906880Y11687860D02*
G01X12906880Y11721642D01*
G01X12950060Y11662460D02*
G01X12958442Y11670842D01*
G01X12950060Y11645442D02*
G01X12950060Y11662460D01*
G01X12958442Y11637060D02*
G01X12950060Y11645442D01*
G01X12958442Y11637060D02*
G01X12992478Y11637060D01*
G01X12992478Y11637060D02*
G01X13000860Y11645442D01*
G01X13000860Y11645442D02*
G01X13000860Y11662460D01*
G01X13000860Y11662460D02*
G01X12992478Y11670842D01*
G01X12975460Y11687860D02*
G01X12975460Y11713260D01*
G01X12975460Y11713260D02*
G01X12967078Y11721642D01*
G01X12958442Y11721642D02*
G01X12967078Y11721642D01*
G01X12950060Y11713260D02*
G01X12958442Y11721642D01*
G01X12950060Y11696242D02*
G01X12950060Y11713260D01*
G01X12958442Y11687860D02*
G01X12950060Y11696242D01*
G01X12958442Y11687860D02*
G01X12975460Y11687860D01*
G01X12975460Y11687860D02*
G01X12992478Y11704624D01*
G01X13000860Y11721642D02*
G01X12992478Y11704624D01*
G01X12721460Y10341660D02*
G01X12729842Y10350042D01*
G01X12721460Y10324642D02*
G01X12721460Y10341660D01*
G01X12729842Y10316260D02*
G01X12721460Y10324642D01*
G01X12729842Y10316260D02*
G01X12763878Y10316260D01*
G01X12763878Y10316260D02*
G01X12772260Y10324642D01*
G01X12772260Y10324642D02*
G01X12772260Y10341660D01*
G01X12772260Y10341660D02*
G01X12763878Y10350042D01*
G01X12729842Y10367060D02*
G01X12721460Y10375442D01*
G01X12721460Y10375442D02*
G01X12721460Y10392460D01*
G01X12721460Y10392460D02*
G01X12729842Y10400842D01*
G01X12729842Y10400842D02*
G01X12746860Y10400842D01*
G01X12755242Y10392460D02*
G01X12746860Y10400842D01*
G01X12755242Y10383824D02*
G01X12755242Y10392460D01*
G01X12746860Y10367060D02*
G01X12772260Y10367060D01*
G01X12772260Y10367060D02*
G01X12772260Y10400842D01*
G01X12746860Y10367060D02*
G01X12755242Y10383824D01*
G01X12332840Y11596420D02*
G01X12324458Y11604802D01*
G01X12349858Y11596420D02*
G01X12332840Y11596420D01*
G01X12358240Y11604802D02*
G01X12349858Y11596420D01*
G01X12358240Y11604802D02*
G01X12358240Y11638838D01*
G01X12358240Y11638838D02*
G01X12349858Y11647220D01*
G01X12349858Y11647220D02*
G01X12332840Y11647220D01*
G01X12332840Y11647220D02*
G01X12324458Y11638838D01*
G01X12307440Y11621820D02*
G01X12282040Y11647220D01*
G01X12307440Y11621820D02*
G01X12282040Y11621820D01*
G01X12282040Y11621820D02*
G01X12273658Y11621820D01*
G01X12282040Y11596420D02*
G01X12282040Y11621820D01*
G01X12282040Y11621820D02*
G01X12282040Y11647220D01*
G01X12534262Y11641378D02*
G01X12517498Y11624360D01*
G01X12525880Y11641378D02*
G01X12517498Y11649760D01*
G01X12517498Y11649760D02*
G01X12517498Y11666778D01*
G01X12525880Y11675160D02*
G01X12517498Y11666778D01*
G01X12551280Y11675160D02*
G01X12525880Y11675160D01*
G01X12551280Y11624360D02*
G01X12551280Y11641378D01*
G01X12551280Y11641378D02*
G01X12551280Y11675160D01*
G01X12551280Y11641378D02*
G01X12534262Y11641378D01*
G01X12534262Y11641378D02*
G01X12525880Y11641378D01*
G01X12492098Y11624360D02*
G01X12492098Y11675160D01*
G01X12500480Y11666778D02*
G01X12492098Y11675160D01*
G01X12500480Y11624360D02*
G01X12492098Y11624360D01*
G01X12492098Y11624360D02*
G01X12483716Y11624360D01*
G01X12441298Y11649760D02*
G01X12432916Y11649760D01*
G01X12458316Y11632742D02*
G01X12449934Y11624360D01*
G01X12449934Y11624360D02*
G01X12432916Y11624360D01*
G01X12432916Y11624360D02*
G01X12424534Y11632742D01*
G01X12424534Y11632742D02*
G01X12424534Y11641378D01*
G01X12432916Y11649760D02*
G01X12424534Y11641378D01*
G01X12432916Y11649760D02*
G01X12424534Y11658142D01*
G01X12424534Y11658142D02*
G01X12424534Y11666778D01*
G01X12432916Y11675160D02*
G01X12424534Y11666778D01*
G01X12449934Y11675160D02*
G01X12432916Y11675160D01*
G01X12458316Y11666778D02*
G01X12449934Y11675160D01*
G01X11475342Y12202618D02*
G01X11458578Y12185600D01*
G01X11466960Y12202618D02*
G01X11458578Y12211000D01*
G01X11458578Y12211000D02*
G01X11458578Y12228018D01*
G01X11466960Y12236400D02*
G01X11458578Y12228018D01*
G01X11492360Y12236400D02*
G01X11466960Y12236400D01*
G01X11492360Y12185600D02*
G01X11492360Y12202618D01*
G01X11492360Y12202618D02*
G01X11492360Y12236400D01*
G01X11492360Y12202618D02*
G01X11475342Y12202618D01*
G01X11475342Y12202618D02*
G01X11466960Y12202618D01*
G01X11433178Y12185600D02*
G01X11433178Y12236400D01*
G01X11441560Y12228018D02*
G01X11433178Y12236400D01*
G01X11441560Y12185600D02*
G01X11433178Y12185600D01*
G01X11433178Y12185600D02*
G01X11424796Y12185600D01*
G01X11399396Y12185600D02*
G01X11365614Y12185600D01*
G01X11399396Y12185600D02*
G01X11365614Y12219382D01*
G01X11365614Y12219382D02*
G01X11365614Y12228018D01*
G01X11373996Y12236400D02*
G01X11365614Y12228018D01*
G01X11391014Y12236400D02*
G01X11373996Y12236400D01*
G01X11399396Y12228018D02*
G01X11391014Y12236400D01*
G01X12151360Y11513820D02*
G01X12142978Y11522202D01*
G01X12168378Y11513820D02*
G01X12151360Y11513820D01*
G01X12176760Y11522202D02*
G01X12168378Y11513820D01*
G01X12176760Y11522202D02*
G01X12176760Y11556238D01*
G01X12176760Y11556238D02*
G01X12168378Y11564620D01*
G01X12168378Y11564620D02*
G01X12151360Y11564620D01*
G01X12151360Y11564620D02*
G01X12142978Y11556238D01*
G01X12117578Y11513820D02*
G01X12117578Y11564620D01*
G01X12125960Y11556238D02*
G01X12117578Y11564620D01*
G01X12125960Y11513820D02*
G01X12117578Y11513820D01*
G01X12117578Y11513820D02*
G01X12109196Y11513820D01*
G01X11447780Y12108180D02*
G01X11439398Y12116562D01*
G01X11464798Y12108180D02*
G01X11447780Y12108180D01*
G01X11473180Y12116562D02*
G01X11464798Y12108180D01*
G01X11473180Y12116562D02*
G01X11473180Y12150598D01*
G01X11473180Y12150598D02*
G01X11464798Y12158980D01*
G01X11464798Y12158980D02*
G01X11447780Y12158980D01*
G01X11447780Y12158980D02*
G01X11439398Y12150598D01*
G01X11422380Y12108180D02*
G01X11388598Y12108180D01*
G01X11422380Y12108180D02*
G01X11388598Y12141962D01*
G01X11388598Y12141962D02*
G01X11388598Y12150598D01*
G01X11396980Y12158980D02*
G01X11388598Y12150598D01*
G01X11413998Y12158980D02*
G01X11396980Y12158980D01*
G01X11422380Y12150598D02*
G01X11413998Y12158980D01*
G01X10718800Y10888980D02*
G01X10710418Y10897362D01*
G01X10735818Y10888980D02*
G01X10718800Y10888980D01*
G01X10744200Y10897362D02*
G01X10735818Y10888980D01*
G01X10744200Y10897362D02*
G01X10744200Y10931398D01*
G01X10744200Y10931398D02*
G01X10735818Y10939780D01*
G01X10735818Y10939780D02*
G01X10718800Y10939780D01*
G01X10718800Y10939780D02*
G01X10710418Y10931398D01*
G01X10668000Y10914380D02*
G01X10659618Y10905998D01*
G01X10659618Y10897362D02*
G01X10659618Y10905998D01*
G01X10668000Y10888980D02*
G01X10659618Y10897362D01*
G01X10685018Y10888980D02*
G01X10668000Y10888980D01*
G01X10693400Y10897362D02*
G01X10685018Y10888980D01*
G01X10693400Y10897362D02*
G01X10693400Y10905998D01*
G01X10693400Y10905998D02*
G01X10685018Y10914380D01*
G01X10693400Y10931398D02*
G01X10685018Y10939780D01*
G01X10693400Y10922762D02*
G01X10693400Y10931398D01*
G01X10693400Y10922762D02*
G01X10685018Y10914380D01*
G01X10685018Y10914380D02*
G01X10668000Y10914380D01*
G01X10668000Y10914380D02*
G01X10659618Y10922762D01*
G01X10659618Y10922762D02*
G01X10659618Y10931398D01*
G01X10668000Y10939780D02*
G01X10659618Y10931398D01*
G01X10685018Y10939780D02*
G01X10668000Y10939780D01*
G01X10777220Y10726420D02*
G01X10785602Y10734802D01*
G01X10777220Y10709402D02*
G01X10777220Y10726420D01*
G01X10785602Y10701020D02*
G01X10777220Y10709402D01*
G01X10785602Y10701020D02*
G01X10819638Y10701020D01*
G01X10819638Y10701020D02*
G01X10828020Y10709402D01*
G01X10828020Y10709402D02*
G01X10828020Y10726420D01*
G01X10828020Y10726420D02*
G01X10819638Y10734802D01*
G01X10785602Y10751820D02*
G01X10777220Y10760202D01*
G01X10777220Y10760202D02*
G01X10777220Y10777220D01*
G01X10777220Y10777220D02*
G01X10785602Y10785602D01*
G01X10828020Y10777220D02*
G01X10819638Y10785602D01*
G01X10828020Y10760202D02*
G01X10828020Y10777220D01*
G01X10819638Y10751820D02*
G01X10828020Y10760202D01*
G01X10811002Y10751820D02*
G01X10819638Y10751820D01*
G01X10811002Y10751820D02*
G01X10802620Y10760202D01*
G01X10802620Y10760202D02*
G01X10802620Y10785602D01*
G01X10785602Y10785602D02*
G01X10802620Y10785602D01*
G01X10802620Y10785602D02*
G01X10819638Y10785602D01*
G01X10982960Y10838180D02*
G01X10991342Y10846562D01*
G01X10982960Y10821162D02*
G01X10982960Y10838180D01*
G01X10991342Y10812780D02*
G01X10982960Y10821162D01*
G01X10991342Y10812780D02*
G01X11025378Y10812780D01*
G01X11025378Y10812780D02*
G01X11033760Y10821162D01*
G01X11033760Y10821162D02*
G01X11033760Y10838180D01*
G01X11033760Y10838180D02*
G01X11025378Y10846562D01*
G01X10982960Y10871962D02*
G01X11033760Y10871962D01*
G01X11025378Y10863580D02*
G01X11033760Y10871962D01*
G01X10982960Y10863580D02*
G01X10982960Y10871962D01*
G01X10982960Y10871962D02*
G01X10982960Y10880344D01*
G01X11025378Y10905744D02*
G01X11033760Y10914126D01*
G01X10991342Y10905744D02*
G01X11025378Y10905744D01*
G01X10991342Y10905744D02*
G01X10982960Y10914126D01*
G01X10982960Y10914126D02*
G01X10982960Y10931144D01*
G01X10982960Y10931144D02*
G01X10991342Y10939526D01*
G01X10991342Y10939526D02*
G01X11025378Y10939526D01*
G01X11033760Y10931144D02*
G01X11025378Y10939526D01*
G01X11033760Y10914126D02*
G01X11033760Y10931144D01*
G01X11059160Y10840720D02*
G01X11067542Y10849102D01*
G01X11059160Y10823702D02*
G01X11059160Y10840720D01*
G01X11067542Y10815320D02*
G01X11059160Y10823702D01*
G01X11067542Y10815320D02*
G01X11101578Y10815320D01*
G01X11101578Y10815320D02*
G01X11109960Y10823702D01*
G01X11109960Y10823702D02*
G01X11109960Y10840720D01*
G01X11109960Y10840720D02*
G01X11101578Y10849102D01*
G01X11059160Y10874502D02*
G01X11109960Y10874502D01*
G01X11101578Y10866120D02*
G01X11109960Y10874502D01*
G01X11059160Y10866120D02*
G01X11059160Y10874502D01*
G01X11059160Y10874502D02*
G01X11059160Y10882884D01*
G01X11059160Y10908284D02*
G01X11067542Y10908284D01*
G01X11067542Y10908284D02*
G01X11101578Y10942066D01*
G01X11101578Y10942066D02*
G01X11109960Y10942066D01*
G01X11109960Y10908284D02*
G01X11109960Y10942066D01*
G01X13774420Y10261600D02*
G01X13766038Y10269982D01*
G01X13791438Y10261600D02*
G01X13774420Y10261600D01*
G01X13799820Y10269982D02*
G01X13791438Y10261600D01*
G01X13799820Y10269982D02*
G01X13799820Y10304018D01*
G01X13799820Y10304018D02*
G01X13791438Y10312400D01*
G01X13791438Y10312400D02*
G01X13774420Y10312400D01*
G01X13774420Y10312400D02*
G01X13766038Y10304018D01*
G01X13749020Y10261600D02*
G01X13715238Y10261600D01*
G01X13749020Y10261600D02*
G01X13715238Y10295382D01*
G01X13715238Y10295382D02*
G01X13715238Y10304018D01*
G01X13723620Y10312400D02*
G01X13715238Y10304018D01*
G01X13740638Y10312400D02*
G01X13723620Y10312400D01*
G01X13749020Y10304018D02*
G01X13740638Y10312400D01*
G01X13698220Y10269982D02*
G01X13689838Y10261600D01*
G01X13689838Y10261600D02*
G01X13672820Y10261600D01*
G01X13672820Y10261600D02*
G01X13664438Y10269982D01*
G01X13664438Y10269982D02*
G01X13664438Y10287000D01*
G01X13672820Y10295382D02*
G01X13664438Y10287000D01*
G01X13681456Y10295382D02*
G01X13672820Y10295382D01*
G01X13698220Y10287000D02*
G01X13698220Y10312400D01*
G01X13698220Y10312400D02*
G01X13664438Y10312400D01*
G01X13698220Y10287000D02*
G01X13681456Y10295382D01*
G01X11683238Y10326878D02*
G01X11666220Y10343642D01*
G01X11683238Y10335260D02*
G01X11691620Y10343642D01*
G01X11691620Y10343642D02*
G01X11708638Y10343642D01*
G01X11717020Y10335260D02*
G01X11708638Y10343642D01*
G01X11717020Y10309860D02*
G01X11717020Y10335260D01*
G01X11666220Y10309860D02*
G01X11683238Y10309860D01*
G01X11683238Y10309860D02*
G01X11717020Y10309860D01*
G01X11683238Y10309860D02*
G01X11683238Y10326878D01*
G01X11683238Y10326878D02*
G01X11683238Y10335260D01*
G01X11666220Y10360660D02*
G01X11666220Y10394442D01*
G01X11666220Y10360660D02*
G01X11700002Y10394442D01*
G01X11700002Y10394442D02*
G01X11708638Y10394442D01*
G01X11717020Y10386060D02*
G01X11708638Y10394442D01*
G01X11717020Y10369042D02*
G01X11717020Y10386060D01*
G01X11708638Y10360660D02*
G01X11717020Y10369042D01*
G01X11685778Y10484358D02*
G01X11668760Y10501122D01*
G01X11685778Y10492740D02*
G01X11694160Y10501122D01*
G01X11694160Y10501122D02*
G01X11711178Y10501122D01*
G01X11719560Y10492740D02*
G01X11711178Y10501122D01*
G01X11719560Y10467340D02*
G01X11719560Y10492740D01*
G01X11668760Y10467340D02*
G01X11685778Y10467340D01*
G01X11685778Y10467340D02*
G01X11719560Y10467340D01*
G01X11685778Y10467340D02*
G01X11685778Y10484358D01*
G01X11685778Y10484358D02*
G01X11685778Y10492740D01*
G01X11694160Y10534904D02*
G01X11694160Y10543540D01*
G01X11677142Y10518140D02*
G01X11668760Y10526522D01*
G01X11668760Y10526522D02*
G01X11668760Y10543540D01*
G01X11668760Y10543540D02*
G01X11677142Y10551922D01*
G01X11677142Y10551922D02*
G01X11685778Y10551922D01*
G01X11694160Y10543540D02*
G01X11685778Y10551922D01*
G01X11694160Y10543540D02*
G01X11702542Y10551922D01*
G01X11702542Y10551922D02*
G01X11711178Y10551922D01*
G01X11719560Y10543540D02*
G01X11711178Y10551922D01*
G01X11719560Y10526522D02*
G01X11719560Y10543540D01*
G01X11711178Y10518140D02*
G01X11719560Y10526522D01*
G01X12159358Y10621822D02*
G01X12159358Y10664240D01*
G01X12167740Y10613440D02*
G01X12159358Y10621822D01*
G01X12184758Y10613440D02*
G01X12167740Y10613440D01*
G01X12193140Y10621822D02*
G01X12184758Y10613440D01*
G01X12193140Y10621822D02*
G01X12193140Y10664240D01*
G01X12142340Y10613440D02*
G01X12108558Y10613440D01*
G01X12142340Y10613440D02*
G01X12108558Y10647222D01*
G01X12108558Y10647222D02*
G01X12108558Y10655858D01*
G01X12116940Y10664240D02*
G01X12108558Y10655858D01*
G01X12133958Y10664240D02*
G01X12116940Y10664240D01*
G01X12142340Y10655858D02*
G01X12133958Y10664240D01*
G01X13659358Y10719562D02*
G01X13659358Y10761980D01*
G01X13667740Y10711180D02*
G01X13659358Y10719562D01*
G01X13684758Y10711180D02*
G01X13667740Y10711180D01*
G01X13693140Y10719562D02*
G01X13684758Y10711180D01*
G01X13693140Y10719562D02*
G01X13693140Y10761980D01*
G01X13642340Y10719562D02*
G01X13633958Y10711180D01*
G01X13633958Y10711180D02*
G01X13616940Y10711180D01*
G01X13616940Y10711180D02*
G01X13608558Y10719562D01*
G01X13608558Y10719562D02*
G01X13608558Y10736580D01*
G01X13616940Y10744962D02*
G01X13608558Y10736580D01*
G01X13625576Y10744962D02*
G01X13616940Y10744962D01*
G01X13642340Y10736580D02*
G01X13642340Y10761980D01*
G01X13642340Y10761980D02*
G01X13608558Y10761980D01*
G01X13642340Y10736580D02*
G01X13625576Y10744962D01*
G01X11262360Y12146280D02*
G01X11270742Y12154662D01*
G01X11262360Y12129262D02*
G01X11262360Y12146280D01*
G01X11270742Y12120880D02*
G01X11262360Y12129262D01*
G01X11270742Y12120880D02*
G01X11304778Y12120880D01*
G01X11304778Y12120880D02*
G01X11313160Y12129262D01*
G01X11313160Y12129262D02*
G01X11313160Y12146280D01*
G01X11313160Y12146280D02*
G01X11304778Y12154662D01*
G01X11287760Y12188444D02*
G01X11287760Y12197080D01*
G01X11270742Y12171680D02*
G01X11262360Y12180062D01*
G01X11262360Y12180062D02*
G01X11262360Y12197080D01*
G01X11262360Y12197080D02*
G01X11270742Y12205462D01*
G01X11270742Y12205462D02*
G01X11279378Y12205462D01*
G01X11287760Y12197080D02*
G01X11279378Y12205462D01*
G01X11287760Y12197080D02*
G01X11296142Y12205462D01*
G01X11296142Y12205462D02*
G01X11304778Y12205462D01*
G01X11313160Y12197080D02*
G01X11304778Y12205462D01*
G01X11313160Y12180062D02*
G01X11313160Y12197080D01*
G01X11304778Y12171680D02*
G01X11313160Y12180062D01*
G01X11529060Y11348720D02*
G01X11495278Y11297920D01*
G01X11495278Y11348720D02*
G01X11529060Y11297920D01*
G01X11469878Y11297920D02*
G01X11469878Y11348720D01*
G01X11478260Y11340338D02*
G01X11469878Y11348720D01*
G01X11478260Y11297920D02*
G01X11469878Y11297920D01*
G01X11469878Y11297920D02*
G01X11461496Y11297920D01*
G01X11899262Y11605818D02*
G01X11882498Y11588800D01*
G01X11890880Y11605818D02*
G01X11882498Y11614200D01*
G01X11882498Y11614200D02*
G01X11882498Y11631218D01*
G01X11890880Y11639600D02*
G01X11882498Y11631218D01*
G01X11916280Y11639600D02*
G01X11890880Y11639600D01*
G01X11916280Y11588800D02*
G01X11916280Y11605818D01*
G01X11916280Y11605818D02*
G01X11916280Y11639600D01*
G01X11916280Y11605818D02*
G01X11899262Y11605818D01*
G01X11899262Y11605818D02*
G01X11890880Y11605818D01*
G01X11865480Y11614200D02*
G01X11840080Y11614200D01*
G01X11840080Y11614200D02*
G01X11831698Y11605818D01*
G01X11831698Y11597182D02*
G01X11831698Y11605818D01*
G01X11840080Y11588800D02*
G01X11831698Y11597182D01*
G01X11857098Y11588800D02*
G01X11840080Y11588800D01*
G01X11865480Y11597182D02*
G01X11857098Y11588800D01*
G01X11865480Y11597182D02*
G01X11865480Y11614200D01*
G01X11865480Y11614200D02*
G01X11848716Y11631218D01*
G01X11831698Y11639600D02*
G01X11848716Y11631218D01*
G01X10552938Y10381742D02*
G01X10552938Y10424160D01*
G01X10561320Y10373360D02*
G01X10552938Y10381742D01*
G01X10578338Y10373360D02*
G01X10561320Y10373360D01*
G01X10586720Y10381742D02*
G01X10578338Y10373360D01*
G01X10586720Y10381742D02*
G01X10586720Y10424160D01*
G01X10519156Y10398760D02*
G01X10510520Y10398760D01*
G01X10535920Y10381742D02*
G01X10527538Y10373360D01*
G01X10527538Y10373360D02*
G01X10510520Y10373360D01*
G01X10510520Y10373360D02*
G01X10502138Y10381742D01*
G01X10502138Y10381742D02*
G01X10502138Y10390378D01*
G01X10510520Y10398760D02*
G01X10502138Y10390378D01*
G01X10510520Y10398760D02*
G01X10502138Y10407142D01*
G01X10502138Y10407142D02*
G01X10502138Y10415778D01*
G01X10510520Y10424160D02*
G01X10502138Y10415778D01*
G01X10527538Y10424160D02*
G01X10510520Y10424160D01*
G01X10535920Y10415778D02*
G01X10527538Y10424160D01*
G01X11521440Y10730738D02*
G01X11496040Y10730738D01*
G01X11496040Y10730738D02*
G01X11487658Y10739120D01*
G01X11487658Y10739120D02*
G01X11487658Y10756138D01*
G01X11496040Y10764520D02*
G01X11487658Y10756138D01*
G01X11521440Y10764520D02*
G01X11496040Y10764520D01*
G01X11521440Y10713720D02*
G01X11521440Y10730738D01*
G01X11521440Y10730738D02*
G01X11521440Y10764520D01*
G01X11453876Y10739120D02*
G01X11445240Y10739120D01*
G01X11470640Y10722102D02*
G01X11462258Y10713720D01*
G01X11462258Y10713720D02*
G01X11445240Y10713720D01*
G01X11445240Y10713720D02*
G01X11436858Y10722102D01*
G01X11436858Y10722102D02*
G01X11436858Y10730738D01*
G01X11445240Y10739120D02*
G01X11436858Y10730738D01*
G01X11445240Y10739120D02*
G01X11436858Y10747502D01*
G01X11436858Y10747502D02*
G01X11436858Y10756138D01*
G01X11445240Y10764520D02*
G01X11436858Y10756138D01*
G01X11462258Y10764520D02*
G01X11445240Y10764520D01*
G01X11470640Y10756138D02*
G01X11462258Y10764520D01*
G01X14300200Y10766298D02*
G01X14274800Y10766298D01*
G01X14274800Y10766298D02*
G01X14266418Y10774680D01*
G01X14266418Y10774680D02*
G01X14266418Y10791698D01*
G01X14274800Y10800080D02*
G01X14266418Y10791698D01*
G01X14300200Y10800080D02*
G01X14274800Y10800080D01*
G01X14300200Y10749280D02*
G01X14300200Y10766298D01*
G01X14300200Y10766298D02*
G01X14300200Y10800080D01*
G01X14249400Y10774680D02*
G01X14224000Y10800080D01*
G01X14249400Y10774680D02*
G01X14224000Y10774680D01*
G01X14224000Y10774680D02*
G01X14215618Y10774680D01*
G01X14224000Y10749280D02*
G01X14224000Y10774680D01*
G01X14224000Y10774680D02*
G01X14224000Y10800080D01*
G04 Text End*

G04 PolygonModel Start*
G54D11*
G01X12250720Y11307700D02*
G01X12780720Y11307700D01*
G01X12250720Y10777700D02*
G01X12780720Y10777700D01*
G01X12250720Y10777700D02*
G01X12250720Y11307700D01*
G01X12780720Y10777700D02*
G01X12780720Y11307700D01*
G01X13467040Y10659220D02*
G01X13637040Y10659220D01*
G01X13467040Y10349220D02*
G01X13637040Y10349220D01*
G01X13637040Y10349220D02*
G01X13637040Y10659220D01*
G01X13467040Y10349220D02*
G01X13467040Y10659220D01*
G01X11214120Y11380660D02*
G01X11214120Y11880660D01*
G01X11214120Y11380660D02*
G01X11534120Y11380660D01*
G01X11534120Y11380660D02*
G01X11534120Y11880660D01*
G01X11214120Y11880660D02*
G01X11534120Y11880660D01*
G01X11214120Y11880660D02*
G01X11534120Y11880660D01*
G01X11534120Y11380660D02*
G01X11534120Y11880660D01*
G36*
G01X11271620Y11360660D02*
G01X11236620Y11315660D01*
G01X11306620Y11315660D01*
G01X11271620Y11360660D01*
G37*
G36*
G01X10669600Y10685520D02*
G01X10704600Y10730520D01*
G01X10634600Y10730520D01*
G01X10669600Y10685520D01*
G37*
G01X11259820Y10175240D02*
G01X11259820Y10683240D01*
G01X11259820Y10683240D02*
G01X11513820Y10683240D01*
G01X11513820Y10175240D02*
G01X11513820Y10683240D01*
G01X11259820Y10175240D02*
G01X11513820Y10175240D01*
G01X14287500Y10723880D02*
G01X14287500Y10215880D01*
G01X14287500Y10215880D02*
G01X14033500Y10215880D01*
G01X14033500Y10723880D02*
G01X14033500Y10215880D01*
G01X14287500Y10723880D02*
G01X14033500Y10723880D01*

G04 Circle Start*
G54D12*
G01X12158220Y11452700D02*
G03X12183220Y11452700I12500J0D01*
G03X12158220Y11452700I-12500J0D01*
G54D13*
G01X12320720Y11207700D02*
G03X12380720Y11207700I30000J0D01*
G03X12320720Y11207700I-30000J0D01*
G54D12*
G01X13329540Y10329220D02*
G03X13354540Y10329220I12500J0D01*
G03X13329540Y10329220I-12500J0D01*
G04 Circle End*

M02*

